<?xml version="1.0" encoding="UTF-8"?>
<svg id="Layer_1" data-name="Layer 1" xmlns="http://www.w3.org/2000/svg" xmlns:xlink="http://www.w3.org/1999/xlink" viewBox="0 0 1920 440.43">
  <defs>
    <style>
      .cls-1 {
        fill: none;
      }

      .cls-2 {
        fill: #fefefe;
      }

      .cls-3 {
        fill: #caa7fe;
      }

      .cls-4 {
        clip-path: url(#clippath);
      }
    </style>
    <clipPath id="clippath">
      <rect class="cls-1" width="1920" height="440.43"/>
    </clipPath>
  </defs>
  <g class="cls-4">
    <g id="Cloudbg">
      <path id="cloudline" class="cls-3" d="M-493.9,9.85l.23,13.7c13.8-13.92,27.72-21.05,45.61-7.8,14.14,10.3,26.56,31.97,25.11,49.01-.38,4.63-6.43,13.37,2.28,13.31,8.71-.06,5.21-3.56,12.18-2.21,4.83,1.06,16.55,9.36,16.62,14.11.07,4.75-1.62,7.98-1.61,11.15.07,4.75,2.25,14.21,4.38,18.47,5.1,10.01,16.03,11.61,17.35-1.25.5-5.07-.78-10.77-2.32-15.69-1.54-4.91-6.52-11.86-6.56-14.01-.67-7.26,15.86-25.17,21.79-29.95,23.95-19.93,66.24-30.09,90.2-4.99,10.18,10.62,11.72,18.71,5.97,32.1-1.7,3.45.49,5.79,4.28,3.99,4.84-2.9,3.71-6.33,10.15-6.12l.8-3.71c10.89-1,22.16,7.17,29.28,14.41,10.96,10.88,14.57,21.63,13.4,36.75-.4,5.3-4.41,21.01-9.49,23.9-5.07,2.89-6.15,1.16-9.01,2.2-4.24,1.56-4.7,5.39-11.1,3.83l.11,3.51c3.99,2.62,8.38,3.21,13.15,2.58s5.84-2.3,7.76-2.24c3.39.11,12.12,6.5,14.87,8.85,2.75,2.35,12.89,13.99,12.47,16.7-.27,1.35-6.53,9.4-7.85,11.96-6.61,12.12-12.66,27.76-1.95,39.31,7.32,7.93,19.4,12.28,29.24,5.25,10.54-7.69,8.41-22.01,5.01-32.53-3.39-10.52-9.68-18.87-9.64-20,0-3.28,11.09-7.22,14.16-7.57,8.41-1.08,16.7,1.33,22.97,6.74,4.63,3.77,10.45,16.18,16.88,13.11,5.06-2.44-2.04-10.36-.73-12.47,1.31-2.11,4.6-2.45,5.96-2.52,6.56-.13,12.56,10.25,17.24,12.66,4.67,2.41,3.27.45,4.83,1.06s1.96,2.33,3.2,2.59c3.37.79,2.24-2.76,3.76-4.29,1.52-1.53,6.08-2.74,8.29-1.09,1.88,1.31,3.54,9.28,6.32,3.83l1.58.05c-.07,2.26,3.21,2.25,5.14,2.09-.16-8.94-6.58-16.84-7.19-26.03-1.45-18.15,22.1-43.06,41.65-42.66,12.21.17,44.65,14.8,46.18,27.07.63,5-5.23,7.86-2.57,13.04,3.62,7.02,12.78-3.32,17.03-5.56,10.36-5.43,23.58-5,32.85,2.2,2.54,2.01,3.56,5.32,6.55,7.45,6.85,4.97,12.1.05,7.56-6.54-3.24-4.74-6.54-4.17-9.13-11.5-12.18-35.92,33.84-91.22,74.82-78.12,3.36,1.13,12.92,6.3,13.71,9.61,1.1,4.56-4.07,6.88-7.42,9.15-3.12,2.05-1.02,6.98,2.65,5.63,1.37-.41,7.66-2.58,8.01-2.68s.4,1.48,1.08,1.62c4.38.93,4.26-2.24,6.58-4.09,8.83-7.18,21.47-6.2,32.15-4.16,26.74,5.51,30.44,17.05,17.51,38.92-1.44,2.56-3.93,2.59-3.15,6.57.3,1.37,1.94,3.12,3.17,3.5,4.15,1.04,20.76-8.72,26.36-10.46,6.86-2.15,12.07-2.55,19.15-1.08,13.37,2.7,12.2,11.03,6.79,20.81-5.41,9.78-8.8,9.67-9.55,11.91-.5,1.34.37,2.61.55,3.86,5.16,1.3,7.79-3.14,11.7-4.94l.79,3.65c7.05-1.13,24.51,4.64,25.63,11.81,1.12,7.16-6.81,14.71-.53,16.27,2.47.53,9.8-5.56,12.67-7.06,17.85-9.83,46.33-5.51,63.43,4.32,16.88,9.71,36.92,47.47,13.01,59.14-1.21,5.96,11.43,6.82,11.59,15.76.16,8.94-7.9,6.31-8.55,8.89-.65,2.58-.18,5.42.13,6.34.52,1.37,2.9,1.11,4.21,2.63,1.31,1.51,2.79,8.01,2.75,9.48.09,4.3-3.41,4.08-4.04,5.86-1.74,4.7,1.08,8.41,6.41,8.24,5.32-.17,3.96-3.49,4.88-3.91,2.42-1.39,13.63,1.8,15.37,4.01,1.74,2.21-1.03,10.83-.81,14.57.38,9.18,3.74,17.09,13.48,20.35,16.78,5.86,21.49-7,15.58-19.86-2.96-6.32-8.74-9.67-12.63-15.23,7.51-8.24,20.67-9.62,31.74-8.93,11.74.72,19.21,4.24,22.23,15.54,5.95,1.32,5.35-.96,10.06,3.72,6.36,6.32,13.75,18.89,12.22,27.66-1.53,8.77-6.17,8.96-2.91,13.03,3.37,4.18,10.25-2.04,13.99-2.26,3.74-.22,7.93,3.09,10.3,3.16,8.03-.08,2.76-8.51,3.84-13.9.93-4.38,7.88-12.75,12.88-13.5,2.05-.27,8.39-.52,10.18-.12,1.8.4,3.56,5.21,7.57,3.87,3.77-1.24.73-8.69,1.61-11.26,2.02-6.5,13.08-9.19,19.49-8.08,6.41,1.11,14.83,13.6,15.27,21.08.44,7.48-4.26,9.36,8.45,11.36,3.3-.46,2.95-7.26,10.82-5.64,6.18,1.33,21.1,15.62,21.47,21.63.03,2.49-3.06,3.52-3.29,7.25-.1,3.05.61,5.68,2.79,8.01,7.28,2.39,6.37-4.43,8.7-6.73,6.07-5.91,31.58-7.46,38.3-2.04,3.08,2.59,8.11,15.08,10.72,14.6,6.82-4.64-1.77-15.22,1.09-19.76,2.86-4.55,8.34-6.06,11.07-6.54,2.73-.48,13.52-1.71,13.87,1.47.35,3.18-.88,2.69-.81,4.05-.16,11.87,1.15,34.43,18.95,32.97,12.25-.96,17.36-19.12,14.16-28.39-1.97-5.49-9.45-12.18-15.15-14.18-.42-1.14.38-1.35.86-2.01,5.81-8.18,18.72-15.57,28.01-19.68,9.18-4,7.53-2.02,8.92-2.88,1.39-.86.07-2.03,1.1-2.57,5.98-3.09,26.03-4.02,33.27-3.79,17.06.78,51.18,9.01,57.88,25.41,4.93,12.04,2.06,20.09,2.36,31.87.22,14.26,7.13,6.91,14.29,5.78,12.73-1.96,29.8,1.87,32.87,15.32.48,2.62-.29,8.81,2.95,10.28,6.8,3.05,9.01-5.7,12.3-9.44,3.29-3.74,7.94-7.77,10.5-6.45,2.56,1.33,1.1,4.56,7.45,3.86,6.36-.7,1.96-8.19,2.27-10.56s4.94-9.23,7.28-11.76c16.41-17.68,61.45-21.65,74.03,1.84,2.46,4.49,2.39,13.54,9.12,11.83.69-3.94,1.56-2.89,5.2-3.45,2.19-1.4-.94-16.21-1.3-19.16-1.16-16.67-.45-27.84,16.02-36.93,27.3-15.07,49.97-2.68,69.15,16.27.28,1.71-.37.89-1.06,1.32-7.57,3.26-12.72,8.41-13.1,16.66-.52,16.05,29.17,11.01,29.94-2.42l3.39.11c0-.11-.06-5.09-.06-5.09,1.75-1.64,13.31,4.73,15.18,6.38,2.74,2.58,3.27,7.23,7.7,6.81,9.07-.72-2.29-13.2,6.9-17.54,9.19-4.45,13.29-1.61,16.9-1.26,3.61.34,6.2,4.16,10.65,2.95-.49-2.39,2.23-2.42,2.29-4.45.07-2.03-1.55-4.58-1.58-7.18-.12-10.3,14.21-23.07,23.08-28.1,28.36-16.39,53.3-7.77,66.55,19.69,1.59,3.33,4.09,16.88,10.35,12.21,2.21-1.74,2.94-6.81,8.13-9.92,7.73-4.61,34.64-7.7,41.94-2.71,7.3,4.99,1.07,5.24,6.88,3.96.29-5.53,7.96-1.33,7.32-6.1-.64-4.77-10.12-8.7-12.58-13.08-13.04-23.39-3.1-57.8,24.02-67.55,8.58-3.12,28.45-1.79,34.9,4.98,2.19,2.33,4.71,11.58,5.71,12.4.99.82,8.38-.18,9.42-.94,3.47-2.49-1.96-5.83-2.48-7.32-2.93-7.45,2.81-30.91,8.66-36.94,8.42-8.55,31.53-2.6,38.87,4.66,5.37,5.38,4.73,14.52,15.21,8.98,10.47-5.54-.48-9.74-.92-13.49-3.07-27.48,20.98-50.34,45.21-61.77,24.12-11.32,46.37,3.88,59.22,22.62,12.85,18.74,2.19,9.12,9.21,8.9l1.31-1.88c-2.98-5.75,2.02-9.89,6.32-13.37,8.6-6.96,23.29-13.5,34.68-12.45,11.39,1.05,14.44,4.65,13.39-4.77-1.05-9.42-9.64-6.2-14-7.69-9.18-3.01-17.41-14.14-15.07-23.57,2.34-9.43,13.91-17.31,19.34-17.36s5.02,5.71,7.36,6.8c8.14,3.54,4.24-8.69,6.26-11.68,4.04-5.98,13.52-1.82,15.41-4.25,1.44-2.67-2.43-5.17-2.94-7-1.64-5.37,11.75-13.65,17.08-14.04,11.46-1.1,15.78,8.66,19.86,8.45s1.56-2.66,2.14-3.32c-11.36-19.49-36.17-18.14-46.95.06-10.77,18.09-1.77,5.6-2.24,6.15s-5.27,2.2-7.01,3.51-4.19,3.6-4.71,5.73c-6.4-5.07-17.11,1.03-22.56,5.15-17.97,13.44-17.76,31.44-3.23,47.41-9.36,2.64-19.27,8.2-26.26,14.42-1.16.98-2.33,2.07-2.49,3.65-1.74,1.19-5.01-5.93-6.32-7.45-27.53-33.7-59.77-23.09-89.6.49-16.25,12.82-25,27.92-25.88,48.03-15.32-9.09-40.6-14.1-52.89,2.13-5.32,6.95-7.36,17.75-8.31,26.09-25.86-11.93-48.36-5.3-65.64,15.07-13.06,15.41-14.54,33.13-10.06,51.94.89,3.88,2.47,7.55,4.05,11.1-13.41-1.45-31.12.46-41.37,9.41-11.84-25.5-31.26-40.61-62.47-33.82-19.94,4.33-49.06,23.41-46.6,45.21-9.24-4.6-31.56-.12-31.49,11.65-6.56-3.49-13.74-5.42-21.29-6.35-20.37-27.7-48.99-45.14-85.02-29.12-11.36,5.06-25.77,16.81-25.51,29.83l.2,14.83c-26.05-23.24-84.52-13.38-93.9,21.39-7.16.9-12.8,4.11-17.15,9.17-9.09-16.13-27.27-20.68-45.09-15.38,3.19-11.21,1.2-29.94-5.38-40-10.88-16.64-48.14-25.88-67.81-26.41-29.05-.72-62.68,14.48-80.9,35.5-14.47-3.86-30.17-.87-39.16,11.17-12.92-6.19-27.47-3.95-40.52.61-1.94-9.79-12.79-20.78-21.9-25.71-5.56-2.9-11.03-5.22-17.13-1.91-2.4-16.71-18.05-32.94-37.24-27.11-6.97,2.15-14.74,7.89-16.1,15.09-17.61-4.64-34.32,8.5-32.95,25.4l-6,.03c2.32-12.14-6.23-27.69-15.11-36.35-8.88-8.66-10.01-5.3-12.54-7.42-2.97-2.47-3.72-7.36-9.5-10.38-16.23-8.67-45.92-7.15-58.16,7.39-5.87-3.81-12.79-6.86-20.16-6.08-.38-5.78-1.77-11.6-6.27-15.93,13.44-2.84,9.48-20.28.51-26.12,14.22-12.89,6.25-39.17-3.26-52.94-9.62-13.77-21.51-20.38-38.22-24.88-17.38-4.64-35.86-7.05-52,2.5-2.21-11.95-18.28-18.92-30.18-18.06,22.86-31.73-15.27-48.69-43.24-33.87,5.3-20.42-3.64-34.28-24.6-40.05-13.9-3.96-30.24-5.73-42.73,2.69-2.31-12.52-19-20.98-31.64-21.96-45.36-3.62-86.15,47.32-76.82,87.67-11.41-3.99-21.64-2.4-32.53,2.11-2.55-12.07-17.04-22.27-28.05-27.83-21.81-11.12-39.87-12.27-59.07,4.31-15.83,13.74-23.79,32.6-15.95,52.43-6.15-2.12-10.9,1.23-15.75,4.24-7.67-11.22-20.43-22.16-33.61-10.03-12.36-13.07-29.88-16.81-46.87-9.33-2.29.94-6.38,4.77-8.37,3.57-6.85-8.48-14.1-18.67-25.06-22.53,12.95-15.76,13.07-43.7,2.41-60.45-8.61-13.52-29.96-31.97-48.19-27.92.25-7.68-3.5-14.25-8.06-20.17-34.96-45.03-110.02-15.33-130.76,27.89-6.46-6.66-14.64-12.35-24.59-12.45,3.11-26.26-24.16-67.76-54.24-68.05-9.16-.07-19.54,5.93-26.16,11.48l-.68-.02v.11s.47-.55.47-.55Z"/>
      <path id="cloudwhite" class="cls-2" d="M-484.68,628.63l-8.98-605.19c2.37-6.94,13-13.61,20.41-15.52,28.07-7.35,55.32,34.72,51.85,58.02-3.97,10.73-3.24,12.57,8.11,7.96,7.84-1.22,21.56,8.39,23.26,15.35-2.03,10.23-1.99,19.62,2.56,29.27,1.9,4.13,7.69,10.66,12.26,5.6,6.69-7.36-2.87-26.68-6.91-34.62-1.37-10.11,20.6-31.69,29.49-37.28,24.48-15.27,57.64-22.91,81.76-2.89,6.28,5.18,12.47,13.08,13.23,21.13.41,4.65-.43,13.22-4.91,15.45-1.03,3.93.28,5.33,4.28,3.99.46-3.72,4.65-7.32,8.97-7.97,2.17-7.62,15.42-1.2,20.53,1.68,22.98,13.42,31.28,36.42,23.16,60.26-3.24,9.28-5.19,13.63-16.65,14.73-3.14,2.5-6.35,3.98-9.98,4.43,5.17,4.58,12.49,2.1,18.44-.08,4.53-.31,13.6,6.32,16.89,9.26,3.74,3.29,13.57,14.13,12.63,18.62-7.32,9.38-12.29,19.63-15.02,30.74-4.07,13.78,12.68,31.18,27.21,26,22.77-8.09,6.83-39.6-.76-53.31-.05-5.54,13.32-9.64,18.3-9.81,15.06-.53,22.84,7.42,30.64,17.74,2.84,3.26,8.24,4,6.38-1.38-7.31-11.66,7.5-15.03,14.71-6.99l8.11,7.96c3.48.79,6.49,2.13,8.69,4.13,1.86-8.65,12.72-8.52,15.5-.18,1.08-1.89,3.45-1.7,6.88.68-1.49-6.38-3.44-12.56-6.07-18.64-6.75-22.17,21.96-52.8,45.73-49.76,12.17,1.53,47.08,16.8,44.36,30.85-7.98,15.92,1.98,12.28,11.52,3.99,11.51-6.19,26.2-5.71,36.11,2.76,10.02,15.26,19.11,7.18,4.11-4.62-18.73-36.36,26.1-93.28,68.53-86.58,6.3,1,22.61,7.41,20.78,15.04-.66,3.03-6.16,8.51-9.04,6.72l-.41,2.14c-4.9,1.2-3.23,5.55,1.16,2.64l1.9.85c1.03-3.93,8.06-4.49,11.28-2.46,10.18-13.81,33.04-10.69,47.57-5.24,20.68,7.57,17.24,22.85,8.03,38.38-4.4,3.02-4.26,9.36,2.26,6.97,11.42-6.87,47.4-20.97,53.72-3.01,3.11,8.7-6.75,19.92-12.39,26.18-1.89,5.93,5.64.52,8.07-1.32,2.76-1.38,3.73.12,4.67,2.53,8.93.06,27.09,5.4,25.61,15.99-4.19,10.72-3.75,14.36,1.46,10.79,34.99-25.68,92.16-6.06,97.9,36.66,1.54,11.93-1.44,16.36-10.6,23.53-.47.44.41,1.37,1.29,2.19,11.21,6.7,14.8,14.62,1.55,21.88l.05,5.43c6.29,1.45,8.97,12.96,5.21,17.36-7.85,4.72,3.9,12.34,6.31,4.16,3.7-2.37,19.41,1.42,18.54,7.28-2.04,14.07-2.87,29.09,15.8,32.42,4.05.7,8.27-.52,9.98-4.2,4.64-10.6-5.76-21.23-12.99-28.48-2.55-4.95,6.4-8.84,10.86-10.51,14.3-4.85,41.99-4.07,44.68,13.89,12.96-1.96,24.93,23.1,22.8,32.76-4.49,9.36-7.33,16.84,6.59,9.6,4.22-1.11,8.38-.18,12.71,2.34,2.14.18,3.29-.35,3.24-2.27-4.27-14.96,8.86-29.01,25.35-24.86,5.79,6.41,7.89,4.44,6.2-6.25,13.34-20.72,38.44-6.33,38.21,14.81-1.87,5.48.07,8.15,6.52,8.24,8.49-17.6,36.21,10.22,33.75,19.65-7.04,7.8.84,19.49,5.6,5.27,6.32-6.58,37.41-9.53,43.07.72l6.99,11.09c1.61-4.25,1.2-9.24-.88-14.62-1.37-10,26.22-16.68,28.67-8.57-2.01,9.55-.72,32.67,11.52,35.33,19.31,4.36,25.08-30.3,7.2-37.1-8.82-3.57-4.16-7.71,1.19-12.41,8.73-7.64,20.02-13.83,31.54-16.96l.98-2.34c23.97-10.2,80.5-2.37,92.9,19.98,4.16,11.22,5.36,23.14,3.7,35.87-.06,1.92.36,6.35,2.97,5.98,14.58-6.54,38.93-3.94,43.92,12.96.23,13.92,5.68,13.19,11.71,1.74,3.76-4.18,11.48-12.3,15.66-5.04,7.7,3.3,7.28-1.35,5.09-6.85,7.02-31.67,69.07-40.52,84.63-11.17,2.39,10.03,5.02,12.61,7.55,7.71,3.74-.11,5.16-2.1,3.82-6.32-4.07-24.34-5.37-43.62,23.03-54.35,17.98-6.77,34.12-2.29,49.17,8.16,3.09,2.25,14.91,11.12,14.71,13.71-.03.9-.5,1.57-1.2,2-32.2,16.15,2.6,38.32,14.32,12l2.51-.71c-.67-10.77,14.27-.67,18.58,2.64,5.56,9.8,9.74,6.65,7.12-3.39-.14-13.13,22.76-11.14,31.09-6.46l2.7-3.08c-5.59-12.63,6.02-25.26,16.22-32.62,33.94-24.58,67.1-11.17,78.57,25.85,2,4.7,4.87,3.21,8.52-4.48,7.53-8.92,40.21-12.16,48.59-5.44,1.68,4.01,3.59,4.3,5.52.63,5.34-.84,6.62-1.93,3.85-3.72-32.66-21.99-15.29-83.19,26.65-82.4,15.94.29,25.55,3.88,29.47,19.17,8.57.73,10-1.37,4.28-6.31-3.14-7.91,2.51-32.05,8.59-38.19,11.12-11.4,42.28-2.7,46.99,12.39,1.57,3.9,9.32,2,8.43-1.88-10.58-29.42,12.35-56.39,38.7-70.24,27.62-14.6,49.52-2.58,65.98,19.79,2.31,5.39,8.33,15.32,7.25,3.29,8.9-16.23,33.63-25.61,52.37-20.7,5.09-.06,2.77-8.73-2.09-8.78-16.36-1.32-31.21-17.76-21.35-32.37,5.23-7.75,20.26-21.18,26.01-6.62l2.36.42c.96-12.19,2.24-16.78,17.37-15.84-6.64-8.13-1.47-13.96,6.82-18.44,12.1-6.73,18.63-2.56,28.23,5.1.7-.66,1.51-1.2,2.54-1.5-.38-2.16-.04-2.38,1.72-.74,3.7.91,7.29,1.93,11.11,2.85,1.05,2.41,2.23,4.48,3.65,6,4.3-7.1,16.05-16.9,23.66-7.6,10.89,6.01,19.28-1.41,6.71-8.04-7.91-.37-9.35-1.1-11.72-8.19-9.24-28.92,25.63-82.32,59.5-55.77,3.17,10.51,6.15,12.53,8.97,5.95-4.08-6.58.56-10.28,7.51-11.97,8.78-2.09,13.18,1.56,18.66,7.17,2.95,3.15,6.47-.81,6.26-4.55,7.51-22.16,26.12-27.55,30.11-.49,1.78,4.47,2.35,4.38,3.86-.33,5.72-5.58,19.18,8.43,19.1,14.42,3.58,182.48,6.57,369.24,9.24,555.54l-2411.46,36.02h.11c0-.11,0-.22,0-.22l-.66-.59Z"/>
    </g>
  </g>
</svg>