<?xml version="1.0" encoding="UTF-8"?>
<svg id="Layer_1" data-name="Layer 1" xmlns="http://www.w3.org/2000/svg" xmlns:xlink="http://www.w3.org/1999/xlink" viewBox="0 0 102.96 102.24">
  <defs>
    <style>
      .cls-1 {
        fill: #4921ab;
      }

      .cls-2 {
        fill: #fff;
      }

      .cls-3 {
        fill: #faf9fd;
      }

      .cls-4 {
        fill: #a382fd;
      }

      .cls-5 {
        fill: #542eb0;
      }
    </style>
  </defs>
  <g id="eyeball1">
    <g>
      <path class="cls-2" d="M52.13,100.24c-.68,0-1.26-.01-1.73-.03-2.8-.09-27.75-1.52-41.02-22.14-3.85-5.99-8.23-16.04-7.23-29.94.48-6.59,2.8-19.3,13.01-30.38C20.29,12.17,31.29,2.71,47.22,2.04c.59-.03,1.17-.04,1.74-.04,8.65,0,15.11,2.7,18.22,4,13.78,5.76,20.88,15.71,23.21,18.98,3.49,4.89,10.76,15.07,10.55,29.86-.21,15.18-8.08,25.74-11.46,29.57-12.12,13.77-28.62,15.82-37.37,15.82Z"/>
      <path class="cls-5" d="M48.96,4c8.07,0,14.17,2.48,17.45,3.85,12.99,5.43,19.9,14.85,22.35,18.29,3.46,4.84,10.38,14.54,10.18,28.67-.21,15.56-8.9,25.94-10.96,28.28-12.13,13.77-29.01,15.15-35.87,15.15-.65,0-1.21-.01-1.67-.03-2.61-.09-26.58-1.29-39.41-21.23-7.92-12.31-7.19-24.92-6.91-28.71.33-4.51,1.92-17.7,12.48-29.17,3.93-4.26,14.72-14.39,30.68-15.06.56-.02,1.11-.03,1.66-.03M48.97,0h0c-.61,0-1.22.01-1.83.04C30.49.74,19.03,10.58,13.68,16.39,3.06,27.92.65,41.13.15,47.98c-1.04,14.45,3.52,24.92,7.54,31.17,13.54,21.04,37.89,22.9,42.64,23.06.49.02,1.1.03,1.8.03,9.09,0,26.22-2.14,38.87-16.5,3.52-4,11.74-15.02,11.95-30.87.21-15.45-7.31-25.99-10.93-31.05-6.48-9.08-14.57-15.69-24.07-19.66-3.23-1.35-9.94-4.16-18.99-4.16h0Z"/>
    </g>
    <path class="cls-4" d="M55.52,80.34c-44.73-6.16-31.27-68.25,9.42-60.55,40,7.57,36.4,66.86-9.42,60.55Z"/>
    <path class="cls-1" d="M79.7,58.1c-7.29,11.4-26.13,9.56-28.66-4.84-2.09-11.92,10.88-23.84,21.9-16.65-10.56,4.14-10.33,20.23,7.24,10.46l.83,2.53c-7.09-1.01-7.26,8.45-1.32,8.5Z"/>
    <path class="cls-3" d="M80.18,47.07c-17.57,9.76-17.8-6.32-7.24-10.46,11.13-4.36,17.29,4.88,7.24,10.46Z"/>
    <path class="cls-3" d="M81.01,49.59c4.8.68,4.26,8.55-1.32,8.5-5.95-.05-5.77-9.51,1.32-8.5Z"/>
  </g>
  <a xlink:href="http://www.instagram.com/skeir.art"/>
</svg>