<?xml version="1.0" encoding="UTF-8"?>
<svg id="Layer_1" data-name="Layer 1" xmlns="http://www.w3.org/2000/svg" xmlns:xlink="http://www.w3.org/1999/xlink" viewBox="0 0 350.25 549.35">
  <defs>
    <style>
      .cls-1 {
        fill: none;
      }

      .cls-2 {
        fill: #662d91;
      }

      .cls-3 {
        fill: #733ccd;
      }

      .cls-4 {
        fill: #c9fe01;
      }

      .cls-5 {
        fill: #5a1fc6;
      }

      .cls-6 {
        fill: #fd249e;
      }

      .cls-7 {
        fill: #fefefe;
      }

      .cls-8 {
        fill: #a758ed;
      }

      .cls-9 {
        fill: #fefdfe;
      }

      .cls-10 {
        clip-path: url(#clippath);
      }
    </style>
    <clipPath id="clippath">
      <rect class="cls-1" x="-255.32" y="-601.38" width="1920" height="440.43"/>
    </clipPath>
  </defs>
  <g class="cls-10">
    <g id="Cloudbg">
      <path id="cloudwhite" class="cls-7" d="M-740,27.25l-8.98-605.19c2.37-6.94,13-13.61,20.41-15.52,28.07-7.35,55.32,34.72,51.85,58.02-3.97,10.73-3.24,12.57,8.11,7.96,7.84-1.22,21.56,8.39,23.26,15.35-2.03,10.23-1.99,19.62,2.56,29.27,1.9,4.13,7.69,10.66,12.26,5.6,6.69-7.36-2.87-26.68-6.91-34.62-1.37-10.11,20.6-31.69,29.49-37.28,24.48-15.27,57.64-22.91,81.76-2.89,6.28,5.18,12.47,13.08,13.23,21.13.41,4.65-.43,13.22-4.91,15.45-1.03,3.93.28,5.33,4.28,3.99.46-3.72,4.65-7.32,8.97-7.97,2.17-7.62,15.42-1.2,20.53,1.68,22.98,13.42,31.28,36.42,23.16,60.26-3.24,9.28-5.19,13.63-16.65,14.73-3.14,2.5-6.35,3.98-9.98,4.43,5.17,4.58,12.49,2.1,18.44-.08,4.53-.31,13.6,6.32,16.89,9.26,3.74,3.29,13.57,14.13,12.63,18.62-7.32,9.38-12.29,19.63-15.02,30.74-4.07,13.78,12.68,31.18,27.21,26,22.77-8.09,6.83-39.6-.76-53.31-.05-5.54,13.32-9.64,18.3-9.81,15.06-.53,22.84,7.42,30.64,17.74,2.84,3.26,8.24,4,6.38-1.38-7.31-11.66,7.5-15.03,14.71-6.99l8.11,7.96c3.48.79,6.49,2.13,8.69,4.13,1.86-8.65,12.72-8.52,15.5-.18,1.08-1.89,3.45-1.7,6.88.68-1.49-6.38-3.44-12.56-6.07-18.64-6.75-22.17,21.96-52.8,45.73-49.76,12.17,1.53,47.08,16.8,44.36,30.85-7.98,15.92,1.98,12.28,11.52,3.99,11.51-6.19,26.2-5.71,36.11,2.76,10.02,15.26,19.11,7.18,4.11-4.62-18.73-36.36,26.1-93.28,68.53-86.58,6.3,1,22.61,7.41,20.78,15.04-.66,3.03-6.16,8.51-9.04,6.72l-.41,2.14c-4.9,1.2-3.23,5.55,1.16,2.64l1.9.85c1.03-3.93,8.06-4.49,11.28-2.46,10.18-13.81,33.04-10.69,47.57-5.24,20.68,7.57,17.24,22.85,8.03,38.38-4.4,3.02-4.26,9.36,2.26,6.97,11.42-6.87,47.4-20.97,53.72-3.01,3.11,8.7-6.75,19.92-12.39,26.18-1.89,5.93,5.64.52,8.07-1.32,2.76-1.38,3.73.12,4.67,2.53,8.93.06,27.09,5.4,25.61,15.99-4.19,10.72-3.75,14.36,1.46,10.79,34.99-25.68,92.16-6.06,97.9,36.66,1.54,11.93-1.44,16.36-10.6,23.53-.47.44.41,1.37,1.29,2.19,11.21,6.7,14.8,14.62,1.55,21.88l.05,5.43c6.29,1.45,8.97,12.96,5.21,17.36-7.85,4.72,3.9,12.34,6.31,4.16,3.7-2.37,19.41,1.42,18.54,7.28-2.04,14.07-2.87,29.09,15.8,32.42,4.05.7,8.27-.52,9.98-4.2,4.64-10.6-5.76-21.23-12.99-28.48-2.55-4.95,6.4-8.84,10.86-10.51,14.3-4.85,41.99-4.07,44.68,13.89,12.96-1.96,24.93,23.1,22.8,32.76-4.49,9.36-7.33,16.84,6.59,9.6,4.22-1.11,8.38-.18,12.71,2.34,2.14.18,3.29-.35,3.24-2.27-4.27-14.96,8.86-29.01,25.35-24.86,5.79,6.41,7.89,4.44,6.2-6.25,13.34-20.72,38.44-6.33,38.21,14.81-1.87,5.48.07,8.15,6.52,8.24,8.49-17.6,36.21,10.22,33.75,19.65-7.04,7.8.84,19.49,5.6,5.27,6.32-6.58,37.41-9.53,43.07.72l6.99,11.09c1.61-4.25,1.2-9.24-.88-14.62-1.37-10,26.22-16.68,28.67-8.57-2.01,9.55-.72,32.67,11.52,35.33,19.31,4.36,25.08-30.3,7.2-37.1-8.82-3.57-4.16-7.71,1.19-12.41,8.73-7.64,20.02-13.83,31.54-16.96l.98-2.34c23.97-10.2,80.5-2.37,92.9,19.98,4.16,11.22,5.36,23.14,3.7,35.87-.06,1.92.36,6.35,2.97,5.98,14.58-6.54,38.93-3.94,43.92,12.96.23,13.92,5.68,13.19,11.71,1.74,3.76-4.18,11.48-12.3,15.66-5.04,7.7,3.3,7.28-1.35,5.09-6.85,7.02-31.67,69.07-40.52,84.63-11.17,2.39,10.03,5.02,12.61,7.55,7.71,3.74-.11,5.16-2.1,3.82-6.32-4.07-24.34-5.37-43.62,23.03-54.35,17.98-6.77,34.12-2.29,49.17,8.16,3.09,2.25,14.91,11.12,14.71,13.71-.03.9-.5,1.57-1.2,2-32.2,16.15,2.6,38.32,14.32,12l2.51-.71c-.67-10.77,14.27-.67,18.58,2.64,5.56,9.8,9.74,6.65,7.12-3.39-.14-13.13,22.76-11.14,31.09-6.46l2.7-3.08c-5.59-12.63,6.02-25.26,16.22-32.62,33.94-24.58,67.1-11.17,78.57,25.85,2,4.7,4.87,3.21,8.52-4.48,7.53-8.92,40.21-12.16,48.59-5.44,1.68,4.01,3.59,4.3,5.52.63,5.34-.84,6.62-1.93,3.85-3.72-32.66-21.99-15.29-83.19,26.65-82.4,15.94.29,25.55,3.88,29.47,19.17,8.57.73,10-1.37,4.28-6.31-3.14-7.91,2.51-32.05,8.59-38.19,11.12-11.4,42.28-2.7,46.99,12.39,1.57,3.9,9.32,2,8.43-1.88-10.58-29.42,12.35-56.39,38.7-70.24,27.62-14.6,49.52-2.58,65.98,19.79,2.31,5.39,8.33,15.32,7.25,3.29,8.9-16.23,33.63-25.61,52.37-20.7,5.09-.06,2.77-8.73-2.09-8.78-16.36-1.32-31.21-17.76-21.35-32.37,5.23-7.75,20.26-21.18,26.01-6.62l2.36.42c.96-12.19,2.24-16.78,17.37-15.84-6.64-8.13-1.47-13.96,6.82-18.44,12.1-6.73,18.63-2.56,28.23,5.1.7-.66,1.51-1.2,2.54-1.5-.38-2.16-.04-2.38,1.72-.74,3.7.91,7.29,1.93,11.11,2.85,1.05,2.41,2.23,4.48,3.65,6,4.3-7.1,16.05-16.9,23.66-7.6,10.89,6.01,19.28-1.41,6.71-8.04-7.91-.37-9.35-1.1-11.72-8.19-9.24-28.92,25.63-82.32,59.5-55.77,3.17,10.51,6.15,12.53,8.97,5.95-4.08-6.58.56-10.28,7.51-11.97,8.78-2.09,13.18,1.56,18.66,7.17,2.95,3.15,6.47-.81,6.26-4.55,7.51-22.16,26.12-27.55,30.11-.49,1.78,4.47,2.35,4.38,3.86-.33,5.72-5.58,19.18,8.43,19.1,14.42,3.58,182.48,6.57,369.24,9.24,555.54L-739.46,28.06h.11c0-.11,0-.22,0-.22l-.66-.59Z"/>
    </g>
  </g>
  <g>
    <g>
      <g>
        <g id="Layer_4" data-name="Layer 4">
          <path class="cls-4" d="M211.09,541.96c4.11,1.01,8.24,1.93,12.39,2.76,8.04,1.61,15.31-3.14,23.47-2.3,3.74.38,9.62-5.38,13.37-5.18,2.79-.55,9.44-3.99,12.26-4.75,9.05-5.84,10.23-4.4,18.22-11.58,6.96-6.25,15.07-13.04,22.22-19.02,6.16-11.48,18.56-22.06,29.72-28.73,8.74-62.46-2.38-122.49-20.09-184.52-17.69-37.43-39.23-71.01-67.11-101.41-15.64-17.15-40.94-27.13-51.19-47.78-13.56-27.07-29.34-47.01-32.57-75.83-2.4-20.86-13.46-28.65-32.07-22.27-18.73,34.49,8.63,20.46-37.83,20.34-29.27-8.32-57.05,49.57-64.61-.2-3.89-13.41,6.39-27.22,13.34-36.19C67.58-3.64,20.79,1.81,21.66,26.69,4.04,65.25,9.94,103.11,7.27,136.58c-.45,5.86-2.29,14.27,2.22,21.64,38.53,63.1,32.96,97.94,25.32,142.11-5.15,15.14-12.25,34.11-22.75,47.65,2,19.23,10.82,31.92,21.86,46.95,27.11,36.98,69.42,71.62,102.24,100.12,7.05,6.11,8.91,11.4,7.54,16.02,2.54.7,4.97,1.83,7.12,3.36,3.16,2.25,6.36,4.45,9.63,6.54.09.06,2.48,1.54,3.02,1.9,1.04.62,2.09,1.23,3.14,1.83,2.25,1.29,4.53,2.54,6.81,3.77,9.16,4.42,18.68,8,28.38,11.03,1.09.34,1.9.54,1.31.37-.31-.09-.61-.17-.92-.26.46.12.74.2.92.26.88.24,1.75.49,2.63.73,1.77.48,3.55.94,5.34,1.38ZM122.45,127.02c5.15,11.15,11.24,18.62,13.22,30.16,4.42,25.17-75.48-40.5-13.22-30.16ZM67.24,75.58c1.19.01,3.07,2.13,1.43,2.76-1.38.42-2.72-2.14-1.43-2.76ZM154.73,334.16c.88,2.27-4.55,1.41-5.12-.38-.54-3.23,4.32-1.08,5.12.38Z"/>
          <g id="O1CWNa.tif">
            <g>
              <path class="cls-3" d="M312.2,440.83c1.05,3.03.96,6.14.72,9.19-1.39,20.55-7.45,39.47-20.4,55.86-5.57,7.01-12.02,13.3-19.09,18.88-.64.49-1.32.87-2,1.25-1.16.68-2.34.67-3.3-.26-.99-1.04-.1-2.09.52-2.93,2.47-3.09,5.09-6.12,7.85-9.08,14.85-15.46,22.79-34.4,27.36-55,.97-4.52,1.86-9.25,2.73-13.73.35-1.55.55-3.17,1.42-4.58.48-.9.58-2.47,1.77-2.46,1.68.06,1.97,1.72,2.41,2.86h0Z"/>
              <path class="cls-3" d="M296.16,415.31c.56,1.44.96,2.47.09,3.28-.97.85-1.94,1.11-3.26.44-2.37-1.22-3.76-3.28-5.48-4.98-11.78-11.78-25.15-21.52-38.39-31.55-7.18-5.39-14.42-10.64-20.81-17.04-1.14-1.1-3.91-2.15-2.21-4.47,1.77-2.46,3.8-.29,5.2.59,14.9,9.74,29.78,19.72,43.58,31.19,7.32,6.05,14.3,12.46,19.81,20.27.56.85,1.17,1.8,1.47,2.27h0Z"/>
              <path class="cls-3" d="M225.13,405.87c.44,1.13.86,1.92.46,3.02-.81,2.8-1.43,3.04-3.62,1.05-3.29-2.99-5.77-6.65-8.48-9.98-8.16-9.75-16.35-19.6-24.51-29.34-2.45-2.96-5.21-5.8-7.22-9.16-.72-1.26-2.19-2.59-.82-3.95,1.43-1.5,3.19-.64,4.59.23,4.44,2.9,7.98,6.85,11.59,10.67,10.2,10.73,18.94,22.62,26.68,35.25.52.74.95,1.53,1.33,2.21h0Z"/>
              <path class="cls-3" d="M327.19,445.91c3.25,8.09,5.1,15.31,5.63,22.8.18,2.3.9,5.69-2.05,6.01-2.36.32-2.63-3.13-3.04-5.1-2.11-9.13-5.2-18-8.13-26.81-.61-1.89-1.02-3.87-1.54-5.8-.5-1.58.82-1.86,1.67-2.42,1.08-.89,1.47.14,2.1.84,3.12,3.17,3.93,7.71,5.36,10.47h0Z"/>
              <path class="cls-3" d="M235.17,210.17c2.66.15,5.99.17,9.39.39,4.94.22,9.52,1.64,14.11,3.41.57.25,1.14.5,1.45.98.52.74,2.29,1.01,1.74,2.05-.65,1.08-1.79,2.11-3.38,1.66-7.71-1.87-15.53-3.1-23.41-4.19-1.23-.12-2.06-.74-2.13-2.14-.09-1.15.73-1.47,2.24-2.17h0Z"/>
              <path class="cls-9" d="M121.71,42.88c2.34,5.13,3.72,10.52,4.79,16.03.64,3.19.27,3.45-2.93,3.15-4.81-.5-9.73-.97-14.54-1.47-1.72-.16-2.04-.99-1.31-2.45,1.15-2.22,2.02-4.57,1.62-7.14-.19-1.11-.77-2.3-1.9-2.46-1.23-.12-1.41,1.26-1.64,2.18-.47,1.84-1.09,3.62-2.23,5.25-1.67,2.42-3.55,3.98-7.02,2.96-3.62-1.09-7.08.37-10.29,1.86-11.69,5.59-22.81,12.03-33.77,18.88-3.7,2.38-3.55,2.44-5.05-1.72-.77-2.3-1.71-4.43-2.7-6.65-3.61-7.48-4.04-15.01-1.55-22.96,2.76-8.77,7.4-16.36,14.33-22.01,6.6-5.28,14.49-9.05,23.12-10.02,17.8-2.04,32,4.66,38.85,21.42.88,1.67,1.56,3.42,2.24,5.17h0ZM65.52,51.27c1.57,4.36,7.9,7.24,14.88,6.31,5.28-.74,9.22-5.23,9.65-10.84.31-4.38-.34-4.84-4.21-3.22-4.59,1.9-6.92.79-8.34-4.11-.46-1.48-1.29-2.11-2.85-1.86-4.07.51-6.33,3.52-8.21,6.61-1.27,1.91-2.18,4.16-.92,7.1h0ZM56.29,59.22c2.81,6.96,6.54,9.54,11.94,8.52.76-.18,1.74-.08,1.84-1.07.03-.84-.85-.97-1.46-1.33-3.92-1.56-7.07-3.89-9.41-7.48-.79-1.12-2-3.02-3.36-2.25-1.32.87.36,2.46.45,3.61Z"/>
            </g>
          </g>
          <path class="cls-8" d="M63.35,30.68c-3.62,3.18-6.87,6.1-8.45,11.21-2.04,6.95-.07,15.42,5.45,20.5,6.07,5.58,13.73,4.87,22.32,4.14,7.31-.7,17.75-1.55,22.76-9.41,3.19-4.91,1.84-11.13.89-15.74-1.11-5.61-7.05-9.35-7.53-8.45-5.4,7.77-12.06,13.2-15.01,12.92-4.53-.38-8.73-6.33-7.6-9.84.76-2.31,3.67-2.13,4.42-4.79.72-2.41-.94-5.79-3.27-6.9-4.4-2.2-11.01,3.67-13.99,6.37h0Z"/>
        </g>
        <path class="cls-2" d="M65.52,51.27c-1.2-3.09-.25-5.23.88-7.21,1.84-3.2,4.15-6.11,8.21-6.61,1.56-.25,2.39.37,2.85,1.86,1.53,4.86,3.75,6.01,8.34,4.11,3.87-1.62,4.56-1.06,4.21,3.22-.43,5.61-4.48,10.14-9.65,10.84-6.94,1.03-13.27-1.85-14.84-6.21h0Z"/>
        <path class="cls-2" d="M56.29,59.22c-.19-1.11-1.77-2.75-.56-3.57,1.42-.91,2.67,1.1,3.36,2.25,2.34,3.59,5.59,5.88,9.41,7.48.57.25,1.45.39,1.46,1.33-.05,1.09-1.04.99-1.84,1.07-5.3.99-9.02-1.6-11.84-8.56Z"/>
        <g>
          <path class="cls-1" d="M41.62,83.73c-3.53-5.14-4.28-11.37-5.92-17.12-2.74-9.83-1.69-19.95,3.44-29.04,3.68-6.4,7.93-12.54,11.57-19.04-.7.63-1.31,1.22-1.6,1.68.4-.51,1-1.1,1.6-1.68l.06-.14c.77-1.37,1.28-2.51.35-3.69-2.82-6.37-8.24-9.36-14.37-7.46-5.51,1.66-9.69,4.94-11.11,11.05-1.58,7.24-3.48,14.25-7.65,20.6-4.82,7.43-5.57,15.89-4.94,24.53.87,10.79,1.59,21.53,1.96,32.27.14,2.2-.96,5.46.51,6.2,1.94,1.03,3.79-1.82,5.69-3.03,6.32-3.87,12.49-7.8,18.77-11.77.85-.56,1.73-1.03,1.97-1.95-.58.34-1.05.64-1.53.95.47-.3.95-.6,1.53-.95.23-.33.07-.74-.31-1.42h0Z"/>
          <path class="cls-1" d="M138.4,61.52c.01.94.15,1.6.45,2.08.39.09.78.17,1.13.16-.39-.09-.74-.07-1.13-.16.46.89,1.38,1.12,2.88,1.02,6.91-.19,13.8-.14,20.57,1.15,4.58.83,4.73.89,3.69-3.92-1.11-5.02-1.71-10.23-2.15-15.63-.24-.62-.85-.97-1.6-1.39-8.56-4.38-16.8-3.32-24.15,3.08-.6.59-1,1.1-1.25,1.67.2.51.4,1.03.42,1.38-.06-.45-.22-.86-.42-1.38-.21.67-.18,1.37.04,2.24.64,3.19,1.43,6.43,1.51,9.72h0Z"/>
          <path class="cls-1" d="M121.71,42.88c-.68-1.75-1.36-3.5-2.07-5.35-6.85-16.77-21.05-23.46-38.85-21.42-8.62.97-16.52,4.74-23.12,10.02-6.93,5.64-11.67,13.28-14.33,22.01-2.49,7.95-2.02,15.58,1.55,22.96,1.08,2.19,1.92,4.35,2.7,6.65.61,1.89,1.01,2.92,1.48,3.21.27-.22.58-.34.85-.56-.27.22-.58.34-.85.56.61.36,1.46-.21,3.56-1.5,10.96-6.85,22.19-13.33,33.77-18.88,3.21-1.48,6.64-3.04,10.29-1.86,1.63.55,2.99.38,4.08-.16l-1.47-.14,1.47.14c1.09-.54,1.99-1.6,2.94-2.8,1.04-1.59,1.8-3.3,2.23-5.25.24-.92.41-2.29,1.64-2.18,1.13.16,1.67,1.25,1.9,2.46.4,2.57-.46,4.92-1.62,7.14-.36.61-.4,1.1-.35,1.55.39.09.74.07.98.09-.25-.02-.63-.11-.98-.09.1.55.67.81,1.65.9,4.81.5,9.73.97,14.54,1.47,1.82.12,2.66.15,3.02-.46-.39-.09-.63-.11-1.02-.2.25.02.63.11,1.02.2.29-.47.18-1.37-.09-2.69-1.23-5.32-2.61-10.71-4.95-15.84h0Z"/>
          <path class="cls-1" d="M23.08,176.16c5.44,12.22,10.78,24.48,16.23,36.7.32.82.41,1.97,1.5,2.03,1.09.05,1.24-1.07,1.52-1.89,3.03-7.45,6.07-14.9,9.06-22.46,3.21-8.23,8.16-15,16.24-19.2,5.32-2.77,10.99-4.02,16.91-4.65,1.6-.15,2.38-.57,2.2-2.27-.64-7.45-1.07-14.98-3.02-22.16-1.06-3.97-1.25-4.14-4.67-1.98-14.7,9.13-29.01,7.33-43.19-1.15-1.04-.54-1.95-1.37-2.76-2.24-.63-.7-1.75-1.45-1.1-2.53.61-1.18,1.75-.68,2.67-.44,3.13.44,6.09,1.67,9.18,2.6,7.48,2.19,14.9,3.94,22.59.84,5.83-2.38,11.54-5.06,17.53-7.03.51-.2,1.17-.34,1.24-1.07-.03-.7-.6-.95-1.18-1.2-3.18-1.49-6.43-2.84-9.32-4.8-1.48-1.08-3.87-2.05-2.82-4.23,1.11-2.33,3.55-1.85,5.57-1.21,1.06.3,2.06.74,3.06,1.18,2.43,1.07,4.75,2.18,7.14,3.15,6.82,2.92,13.84,3.64,20.96,1.23,3.99-1.31,8.06-2.41,12.07-3.37,9.91-2.54,20.04-4.8,29.42-9.03,13.11-5.91,21.93-19.51,17.98-35.5-.38-1.28-.96-1.88-2.13-2.14-2.33-.52-4.06-.09-5.31,2.18-3.35,6.03-6.73,11.96-10.22,17.93-2.19,3.81-5.45,5.19-9.85,4.53-6.86-.9-12.94-3.75-18.55-7.85-1.34-1.02-2.46-2.36-3.26-3.83-2.82-4.83-2.81-9.69-.7-14.65.44-1,1.56-2.38-.48-2.77-2.33-.52-4.58-1.42-6.92-1.35-7.05.13-13.92,1.36-20.84,2.15-2.05.2-3.83,1.13-5.56,2.15-19.48,10.86-38.37,22.91-58.11,33.4-6.37,3.42-11.56,7.44-14.43,14.71-3.42,8.9-4.48,17.48-1.01,26.44,2.95,7.62,5.9,15.24,8.85,22.86l.21-.08c1.23,2.25,2.29,4.68,3.31,7.01h0Z"/>
          <path class="cls-1" d="M112.64,150.59c6.61,3,13.28,5.87,19.64,9.44.75.42,1.67,1.25,2.39.37.56-.69-.21-1.46-.59-2.14-2.01-3.36-4.03-6.73-5.32-10.37-.8-2.06-1.22-4.38-2.46-6.03-2.77-3.78-4.81-7.84-6.08-12.33l-16.27,1.09c-2.5.26-2.64,1.14-1.12,2.92,3.62,4.16,6.67,8.66,7.57,14.35.21,1.46,1.04,2.08,2.23,2.69h0Z"/>
          <path class="cls-1" d="M317.63,278.76c-6.33-10.22-13.17-19.64-20.43-28.91-7.3-9.37-15.78-17.81-21.96-27.96-3.8-6.46-6.31-13.54-10.63-19.8-7.39-10.52-15.69-20.33-26.21-27.62-8.67-5.88-16.37-12.61-23.81-19.9-4.22-4.17-8.73-7.87-12.68-12.26-7.53-8.45-12.99-17.94-14.96-29.14-.92-5.44-4.61-9.46-6.9-14.14-.16-.41-.46-.89-.72-1.26-.87-1.32-.82-3.95-2.66-3.82-1.4.07-1.63,2.52-2.26,3.95-5.03,10.24-13.51,16.48-23.83,20.71-7.27,2.93-14.72,5.11-22.36,6.77-2.73.59-3.14,1.69-1.97,4.08,3.67,7.93,10.03,13.05,17.72,16.7,1.47.73,3.94,1.31,3.14,3.52-.83,2.45-3.15,1.34-4.95.97-1.51-.24-2.71-1.2-4.83-.85,3.81,7.4,7.88,14.23,13,20.42,8.13,9.99,16.37,19.95,25.81,28.72,4.43,4.09,9.58,7.3,14.9,10.33,1.69,1,4.74,1.84,3.66,4.26-.95,2.14-3.53.66-5.31.04-5.33-1.84-10.49-4.46-15.09-7.77-.51-.4-1.07-1.24-1.78-.61-.6.59-.08,1.33.27,1.91,1.99,3.61,4.68,6.59,8.4,8.23,3.86,1.7,7.94,3.08,12.39,3.25,8.59.46,17.04,1.81,25.45,3.64,1.27.22,2.64.4,2.46,2.36-.27,1.76-1.56,1.79-2.91,1.96-1.5.11-3.14.15-4.68.15.13,1.25.97,1.28,1.79,1.56,4.35,1.75,8.7,3.5,12.44,6.43.83.62,2.18,1.05,1.45,2.52-.73,1.47-1.96,1.35-3.31.93-4.25-1.19-8.25-2.96-12.31-4.58-9.51-3.77-19.35-6.24-29.04-9.24-6.56-1.96-12.12-5.61-16.32-10.96-3.09-4.01-2.68-6.3,1.7-9.06,1.63-.99.27-1.76-.28-2.26-4.26-4.27-8.72-8.46-12.75-13.06-4.54-4.99-9.18-9.94-13.22-15.48-.93-1.18-1.91-1.87-3.23-2.54-10.81-5.29-21.6-10.82-32.09-16.82-1.22-.71-1.93-1.62-2.72-2.74-3.45-5.53-6.95-10.92-10.3-16.5-1.89-3.06-3.49-1.37-5.68-.29-2.45,1.31-1.48,2.59-.54,4.12,2.12,3.32,3.1,7.09,3.88,10.93.29,1.66.88,2.27,2.25.91.17-.18.27-.22.44-.41,1.49-1.05,3.34-1.77,4.66-.5,1.4,1.47,0,3.08-.97,4.52-.06.14-.17.18-.17.18-4.68,2.29-5.37,6.93-6.77,11.26-.4,1.1,0,1.54.73,2.2,3.84,3.49,8.99,4.57,13.41,7.12,9.17,5.33,18.07,10.88,26.09,17.84,2.15,1.89,4.88,3.44,7.24,5.25,1.71,1.35,2.29.41,2.25-1.23-.17-3.49-.09-6.95.93-10.43.49-1.49,1.1-2.67,2.82-2.51,1.82.12,1.68,1.6,1.71,2.89.46,5.15,1.16,10.33,1.51,15.52.13,2.79,1.75,4.53,3.79,6.11,1.52,1.19,2.13.6,2.04-1.15-.01-2.48.42-5.02,1.58-7.24.54-1.04,1.14-2.57,2.87-2.06,1.59.45,2.11,1.79,2.18,3.18-.02,3.32-.28,6.62-1.56,9.72-.82,1.86-.42,2.89,1.06,3.97,4.78,3.48,9.56,6.95,14.14,10.51,8.74,6.68,15.99,15,24.01,22.55,9.19,8.75,17.25,18.54,27.04,26.71,5.24,4.36,8.51,9.73,8.3,17.15-.32,7.11-9.11,13.47-15.45,10.25-7.81-3.96-13.25-10.38-17.6-17.93-2.59-4.56-4.22-9.38-4.66-14.77-.25-3.69.77-6.57,3.82-8.47,1.53-.95,1.35-1.71.38-2.99-4.61-5.79-10.09-10.77-16.14-15.06-18.94-13.74-37.9-27.24-55.88-42.18-10.3-8.56-21.06-16.47-33.03-22.61-9.5-4.96-18.46-3.63-27.35,1.24-2.93,1.61-5.05,4.09-6.31,6.94-5.32,12.24-12.21,23.79-15.25,37.05-1.63,6.79-2.49,13.75-3.24,20.67-.85,7.91-1.65,15.91-2.39,23.78-.09.98-.93,2.49.52,2.88,1.06.3,1.41-1.26,1.83-2.01,4.97-8.56,11.35-15.64,20.74-19.52,5.93-2.42,12.07-3.37,18.5-2.67.74.07,1.67.65,2.12-.35.38-.86-.52-1.34-1-1.98-1.27-1.76-2.75-3.43-3.92-5.23-1.25-2-3.09-4.61-.44-6.34,2.17-1.43,4.26.6,5.78,2.38,2.15,2.48,4.46,4.79,6.64,7.37,5.6,6.83,13.2,9.33,21.34,11.39,8.28,2.12,16.88,2.93,24.93,5.97,4.84,1.8,9.14,4.63,12.54,8.52,1.92,2.22,4.16,3.72,6.92,5.02,6.79,3.17,12.42,8.21,17.88,13.44,5.28,5.06,10.12,10.53,15.79,15.08,2.44,2.02,5.13,3.46,7.88,4.76,4.36,2.1,8.57,1.65,12.88-.37,1.4-.66,2.95-1.26,4.39-1.82,1.17-.34,2.2-.14,2.78,1.06.54,1.09.27,1.91-.6,2.72-8.68,7.86-18.67,10.19-29.5,1.48-5.2-4.26-10.01-9.03-14.55-14.02-2.25-2.44-4.17-5.25-6.15-7.92-.71-.91-1.21-1.9-1.98-2.67-.77-.77-1.97-1.72-2.88-1.02-1.18.93.27,1.91.79,2.65,2.26,3.39,4.62,6.74,6.88,10.12.91,1.42,2.52,1.63,3.62,2.62,6.01,5.73,12.01,11.45,17.58,17.58,2.07,2.28,2.8,4.48,1.29,7.31-1.51,2.83-4.36,4.65-7.28,4.12-2.19-.45-3.45.27-5.02,1.71-6.77,6.06-14.91,7.67-23.76,6.83-11.45-1.13-21.07-6.4-30.1-13.21-2.87-2.2-5.96-4.08-8.33-6.84-.71-.91-1.56-1.29-2.58-.54-.91.71-1.78,1.52-1.2,2.71,2.96,7.02-.52,13.94-.29,20.95.27,7.12-2.1,13.84-5.14,20.35-6.82,14.48-16.67,26.35-29.06,36.24-.54.45-1.08.89-1.65,1.23-1.16.68-2.45,1.31-3.53.06-1.07-1.24-.79-2.65.31-3.79,3.67-3.67,6.79-7.84,9.95-11.91,12.51-15.38,21.25-32.27,22.66-52.47.13-2.42.69-4.65,1.55-7,.65-1.67-.01-2.48-1.91-1.87-2.41.81-4.79,1.38-7.14,2.05-.86.22-1.79.58-2.17,1.43-5.52,10.19-14.85,15.46-24.79,20.38-4.37,2.17-8.82,4.13-13.43,5.68-1.79.58-3.74.74-5.59.86-1.15.09-2.24.04-2.55-1.38-.35-1.52,1.04-1.59,1.91-1.8,9.01-3.02,17.34-7.19,24.87-12.83,3.41-2.51,6.64-5.18,9.32-8.35.66-.73,2.17-1.43,1.73-2.56-.44-1.13-1.92-.68-2.9-.77-5.61-.43-11.05-1.64-16.2-3.91-.71-.32-1.47-.73-2.08-1.09-1.08-.65-1.44-1.57-.97-2.82.36-1.21,1.38-1.01,2.27-.88,4.36.56,8.66,1.26,13.06,1.93,10.03,1.44,19.7.42,28.89-3.97,1.09-.54,2.27-.88,3.36-1.42,3.42-1.56,6.24-1,9.29,1.37,9.39,7.14,19.31,13.48,31.11,16.13,7.14,1.62,13.84-.03,20.33-3.14,2.19-1.08,2.3-2.31.43-4.08-5.3-4.82-8.45-10.82-8.91-18.1-.21-3-2.63-4.66-4.07-6.83-4.46-6.92-9.12-13.76-13.78-20.59-2.14-3.08-4.61-5.79-7.42-8.14-3.53-3.01-7.64-4.14-12.33-4.93-13.08-2.28-26.05-5.19-39-7.75-5.26-1.04-10.53-2.43-15.97-2.1-11.64.84-20.16,6.03-25.77,16.61-6.38,11.95-11.38,24.42-15.13,37.36-4.07,13.65-10.13,26.42-16.77,38.94-1.86,3.44-1.51,7.1-.65,10.55,3.06,12.19,7.74,23.64,17.15,32.67,4.77,4.67,8.09,10.48,11.06,16.32,5.62,10.85,13.26,19.26,23.75,25.85,11.38,7.08,19.76,17.69,28.98,27.14,15.33,15.73,31.09,31.06,49.64,43.17,9.2,6.03,19.07,10.73,29.05,15.39,6.51,3.04,13.01,6.09,19.46,9.28,1.18.61,3.39.82,2.98,3.11-.4,2.64-1.55,3.33-4.54,2.35-6.85-2.08-13.39-5.23-19.86-8.17-1-.44-1.77-1.21-2.6-1.83-.19.43-.42.75-.61,1.18,1.19,2.21,2.42,4.44,3.65,6.67,8.33,3.84,16.93,7.07,25.69,9.81,1.09.34,1.9.54,1.31.37-.31-.09-.61-.17-.92-.26.46.12.74.2.92.26.88.24,1.75.49,2.63.73,1.77.48,3.55.94,5.34,1.38,4.11,1.01,8.24,1.93,12.39,2.76,8.04,1.61,16.14,2.95,24.3,3.79,3.74.38,7.49.63,11.24.84,2.79-.55,5.64-1.17,8.46-1.92,9.05-5.84,17.34-12.85,25.33-20.02,6.96-6.25,14.08-12.26,21.23-18.24,5.71-10.64,12.37-22.16,22.2-29.1,1.95-8.76,3.98-17.51,6.24-26.22,1.41-5.52.39-10.92.16-16.4-.24-13.76-.72-27.55-1.06-41.27-.2-9.39-1.91-18.68-4.12-27.77-2.51-10.75-3.21-21.73-4.21-32.59-2.04-19.93-5.86-39.29-15.59-57.07Z"/>
          <path class="cls-1" d="M151.15,514.64c3.06,2.17,6.15,4.29,9.32,6.32,0,0,.05.03.11.07-2.09-1.93-4.04-3.98-5.94-6.14-1.48-1.64-2.4-1.61-3.48-.24Z"/>
          <path class="cls-5" d="M50.71,18.52c-3.64,6.5-7.89,12.65-11.57,19.04-5.12,9.09-6.18,19.21-3.44,29.04,1.54,5.8,2.39,11.98,5.92,17.12.49.64.58,1.2.39,1.62,2.21-1.33,5.14-2.94,7.14-4.19-.47-.29-.87-1.32-1.48-3.21-.77-2.3-1.71-4.43-2.7-6.65-3.61-7.48-4.04-15.01-1.55-22.96,2.76-8.77,7.4-16.36,14.33-22.01,6.6-5.28,14.49-9.05,23.12-10.02,17.8-2.04,32,4.66,38.85,21.42l2.07,5.35c2.34,5.13,3.72,10.52,4.79,16.03.27,1.32.39,2.22.09,2.69,3.66.59,8.45,1.34,12.12,1.94-.3-.47-.44-1.13-.45-2.08-.09-3.28-.87-6.53-1.62-9.68-.22-.86-.25-1.56-.04-2.24-.44-1.13-1.16-2.39-1.74-3.59-.5-.99-1.19-2.15-1.83-3.2-.8.07-1.37-.77-2.51-2.82-4.6-8.52-10.65-15.88-18.48-21.73-3.01-2.27-6.12-4.5-9.72-5.83-11.01-3.67-22.2-4.43-33.59-1.43-2.9.77-5.72,1.74-8.54,2.72-.72.28-1.42.31-1.85.12-1.13.44-2.53,1.1-3.48,1.7-1.46.8-3.06,1.89-4.23,2.82h0Z"/>
          <path class="cls-5" d="M321.54,271.44c-8.68-14.16-19.12-27.05-29.93-39.68-4.55-5.34-9.38-10.46-11.66-17.27-2.15-6.15-5.49-11.73-9.04-17.22-7.38-11.11-18.06-18.82-27.81-27.47-4.71-4.21-10.42-7.33-15-11.83-8.44-8.34-16.81-16.81-25.09-25.33-4.01-4.25-7.18-9.06-7.44-15.23-.13-2.79-1.17-5.47-2.37-7.96-4.06-8.96-9.16-17.53-12.75-26.8-2.95-7.62-6.11-15.16-6.06-23.58.04-3.57-.52-7.14-1.63-10.62-.67-2.34-.95-5.2-3.04-6.64-11.64-8.04-21.11-10.18-33.66-.7-1.38,1.01-2.19,1.68-2.89,1.71.6.95,1.33,2.21,1.83,3.2.62,1.3,1.35,2.56,1.74,3.59.25-.57.61-1.18,1.25-1.67,7.39-6.3,15.48-7.42,24.15-3.08.75.42,1.37.77,1.6,1.39.43,5.4,1.13,10.57,2.15,15.63q.99,4.71-3.69,3.92c-6.77-1.28-13.66-1.34-20.57-1.15-1.54,0-2.42-.13-2.88-1.02-3.66-.59-8.45-1.34-12.12-1.94-.36.61-1.26.72-3.02.46-4.81-.5-9.73-.97-14.54-1.47-.98-.09-1.45-.38-1.65-.9-2.01-.29-4.5-.62-6.61-.87-1.09.54-2.34.67-4.08.16-3.62-1.09-7.08.37-10.29,1.86-11.69,5.59-22.81,12.03-33.77,18.88-2,1.25-2.95,1.85-3.56,1.5-2,1.25-4.93,2.86-7.14,4.19-.17.78-1.12,1.38-1.97,1.95-6.28,3.97-12.45,7.9-18.77,11.77-1.9,1.21-3.65,4.02-5.69,3.03-1.47-.73-.41-4.11-.51-6.2-.37-10.75-1.14-21.58-1.96-32.27-.73-8.6.09-17.2,4.94-24.53,4.17-6.35,5.93-13.43,7.65-20.6,1.32-6.08,5.6-9.39,11.11-11.05,6.13-1.9,11.55,1.09,14.37,7.46.93,1.18.43,2.32-.35,3.69l-.06.14c1.14-1.03,2.77-2.02,4.4-3.01.95-.6,2.35-1.27,3.48-1.7-.43-.19-.69-.56-.97-1.28-2.79-7.8-10.71-12.07-17.75-11.6-1.15.09-2.17-.11-3.17-.55-4.02-1.52-8.09-.42-11.6.94-3.54,1.25-4.82,5.3-4.81,8.97-.04,3.57-.9,6.86-1.85,10.19-.9,3.19-1.79,6.38-2.59,9.53-.2,1.02-.53,1.98-1.2,2.71-5.53,7.12-7.61,15.5-8.35,24.31-.38,4.53-.06,9.02.22,13.41.72,12.86.25,25.72.38,38.57.03,1.29-.34,2.5-1.09,3.62C-.11,121.8-1.36,131.4,1.4,141.58c1.36,5.04,3.65,9.72,5.52,14.56,5.8,15.28,12.46,30.34,18.67,45.46,2.26,5.52,4.92,10.88,7.39,16.32,2.08,4.76,5.07,8.81,4.24,14.93-2.61,19.25-4.44,38.66-6.07,58-1.03,12-5.46,22.6-11.33,32.81-4.24,7.09-9.27,13.66-12.39,21.5-3.86,9.9-2.14,18.94,4.4,26.95,2.71,3.33,5.32,6.7,7.56,10.34,2.4,4.05,5.43,7.61,9.44,10.31,1.3.92,2.44,2.02,3.24,3.48,3.22,5.86,6.54,11.68,9.75,17.54,3.02,5.34,6.74,10.06,11.97,13.48,4.44,2.9,8.42,6.45,12.36,9.9,7.66,6.62,13.95,14.61,20.73,22.04,15.05,16.55,31.23,31.71,50.42,43.35,2.02,1.23,4.07,2.57,6.09,3.8,1.12.75,1.3,1.51.08,2.34-.94.57-1.85,1.17-2.76,1.8,3.53.48,6.98,1.78,9.92,3.82.94-1.07,1.88-1.06,3.27.53,1.46,1.66,2.95,3.26,4.51,4.79.69.45,1.36.92,2.05,1.36.09.06,2.48,1.54,3.02,1.9,1.04.62,2.09,1.23,3.14,1.83,2.25,1.29,4.53,2.54,6.81,3.77.58.28,1.18.53,1.76.8-1.17-2.11-2.33-4.21-3.47-6.32.19-.43.42-.75.61-1.18.83.62,1.64,1.49,2.6,1.83,6.57,2.9,13.01,6.09,19.86,8.17,2.98.98,4.14.29,4.54-2.35.41-2.29-1.8-2.5-2.98-3.11-6.44-3.19-12.95-6.23-19.46-9.28-9.87-4.7-19.89-9.47-29.05-15.39-18.51-12.01-34.21-27.48-49.64-43.17-9.23-9.45-17.6-20.06-28.98-27.14-10.45-6.49-18.09-14.9-23.75-25.85-2.97-5.84-6.29-11.65-11.06-16.32-9.42-9.02-14.09-20.47-17.15-32.67-.86-3.45-1.21-7.11.65-10.55,6.64-12.52,12.7-25.29,16.77-38.94,3.89-12.88,8.75-25.41,15.13-37.36,5.61-10.58,14.24-15.82,25.77-16.61,5.44-.33,10.67.96,15.97,2.1,12.99,2.66,25.96,5.57,39,7.75,4.58.83,8.8,1.92,12.33,4.93,2.8,2.35,5.32,5.16,7.42,8.14,4.66,6.84,9.32,13.68,13.78,20.59,1.43,2.17,3.85,3.84,4.07,6.83.45,7.28,3.57,13.18,8.91,18.1,1.87,1.76,1.85,2.95-.43,4.08-6.39,3.07-13.09,4.72-20.33,3.14-11.8-2.65-21.72-8.99-31.11-16.13-3.19-2.43-5.87-2.94-9.29-1.37-1.09.54-2.27.88-3.36,1.42-9.19,4.39-18.86,5.41-28.89,3.97-4.4-.66-8.66-1.26-13.06-1.93-.88-.13-1.9-.33-2.27.88-.36,1.21-.11,2.17.97,2.82.65.46,1.37.77,2.08,1.09,5.14,2.27,10.58,3.48,16.2,3.91,1.09.05,2.46-.36,2.9.77s-1.11,1.73-1.73,2.56c-2.78,3.21-6.01,5.88-9.32,8.35-7.63,5.68-15.96,9.85-24.87,12.83-.82.32-2.16.24-1.91,1.8.31,1.42,1.4,1.47,2.55,1.38,1.85-.12,3.8-.29,5.59-.86,4.61-1.55,9.06-3.51,13.43-5.68,9.83-4.87,19.22-10.29,24.79-20.38.48-.9,1.31-1.22,2.17-1.43,2.34-.67,4.83-1.28,7.14-2.05,1.89-.61,2.56.19,1.91,1.87-.91,2.25-1.42,4.58-1.55,7-1.31,20.16-10.15,37.08-22.66,52.47-3.3,4-6.43,8.17-9.95,11.91-1.1,1.14-1.38,2.55-.31,3.79,1.07,1.24,2.37.62,3.53-.06.58-.34,1.12-.79,1.65-1.23,12.35-9.99,22.2-21.86,29.06-36.24,3.04-6.51,5.52-13.27,5.14-20.35-.23-7.02,3.25-13.93.29-20.95-.48-1.24.29-2.01,1.2-2.71,1.01-.75,1.87-.37,2.58.54,2.37,2.75,5.46,4.63,8.33,6.84,9.03,6.8,18.65,12.08,30.1,13.21,8.75.88,16.99-.78,23.76-6.83,1.57-1.44,2.87-2.06,5.02-1.71,2.97.63,5.88-1.33,7.28-4.12,1.51-2.83.77-5.04-1.29-7.31-5.57-6.13-11.68-11.82-17.58-17.58-1.1-1-2.71-1.2-3.62-2.62-2.26-3.39-4.62-6.74-6.88-10.12-.52-.74-1.97-1.72-.79-2.65.81-.67,2.15.35,2.88,1.02.77.77,1.27,1.76,1.98,2.67,1.98,2.67,3.9,5.48,6.15,7.92,4.64,4.95,9.31,9.66,14.55,14.02,10.87,8.81,20.82,6.38,29.5-1.48.77-.77,1.15-1.63.6-2.72-.58-1.2-1.64-1.49-2.78-1.06-1.48.46-3.03,1.05-4.39,1.82-4.27,2.13-8.52,2.47-12.88.37-2.75-1.3-5.48-2.85-7.88-4.76-5.71-4.66-10.51-10.02-15.79-15.08-5.36-5.27-10.98-10.31-17.88-13.44-2.75-1.3-4.95-2.7-6.92-5.02-3.4-3.89-7.59-6.77-12.54-8.52-8.05-3.04-16.65-3.85-24.93-5.97-8.28-2.12-15.78-4.66-21.34-11.39-2.04-2.52-4.5-4.89-6.64-7.37-1.56-1.88-3.65-3.92-5.78-2.38-2.54,1.69-.81,4.34.44,6.34,1.17,1.8,2.65,3.47,3.92,5.23.49.64,1.38,1.12,1,1.98-.44,1-1.38.42-2.12.35-6.39-.6-12.47.21-18.5,2.67-9.39,3.87-15.76,10.96-20.74,19.52-.52.79-.76,2.31-1.83,2.01-1.45-.38-.51-1.93-.52-2.88.7-7.97,1.55-15.87,2.39-23.78.75-6.92,1.61-13.88,3.24-20.67,3.08-13.15,9.93-24.8,15.25-37.05,1.26-2.86,3.38-5.34,6.31-6.94,8.89-4.86,17.89-6.1,27.35-1.24,12.01,6.24,22.73,14.05,33.03,22.61,17.98,14.94,37.05,28.39,55.88,42.18,5.94,4.33,11.42,9.31,16.14,15.06,1.07,1.24,1.25,2-.38,2.99-3.02,2-4.07,4.77-3.82,8.47.39,5.29,2.02,10.11,4.66,14.77,4.31,7.45,9.79,13.97,17.6,17.93,6.34,3.23,15.13-3.14,15.45-10.25.35-7.36-3.06-12.79-8.3-17.15-9.79-8.17-17.78-18.1-27.04-26.71-8.02-7.55-15.16-15.91-24.01-22.55-4.68-3.52-9.46-6.99-14.14-10.51-1.48-1.08-1.99-2.07-1.06-3.97,1.32-3,1.55-6.4,1.56-9.72,0-1.54-.48-2.77-2.18-3.18-1.74-.51-2.23.98-2.87,2.06-1.15,2.22-1.63,4.66-1.58,7.24-.02,1.78-.52,2.33-2.04,1.15-2.03-1.58-3.61-3.22-3.79-6.11-.35-5.19-1.02-10.26-1.51-15.52-.13-1.25.11-2.77-1.71-2.89-1.72-.16-2.33,1.02-2.82,2.51-1.02,3.47-1,6.9-.93,10.43.08,1.74-.5,2.68-2.25,1.23-2.36-1.81-4.95-3.29-7.24-5.25-8.02-6.96-16.96-12.61-26.09-17.84-4.42-2.55-9.54-3.53-13.41-7.12-.73-.66-1.03-1.14-.73-2.2,1.4-4.33,1.98-8.94,6.77-11.26.1-.04.17-.18.17-.18.98-1.45,2.37-3.05.97-4.52-1.36-1.37-3.17-.55-4.66.5-.21.08-.37.26-.44.41-1.41,1.26-1.96.76-2.25-.91-.78-3.84-1.76-7.61-3.88-10.93-.91-1.42-1.92-2.81.54-4.12,2.08-1.04,3.78-2.77,5.68.29,3.34,5.57,6.85,10.96,10.3,16.5.68,1.16,1.5,2.03,2.72,2.74,10.49,6,21.18,11.57,32.09,16.82,1.33.67,2.3,1.36,3.23,2.54,4,5.44,8.64,10.39,13.22,15.48,4.13,4.56,8.49,8.79,12.75,13.06.55.5,2.02,1.23.28,2.26-4.27,2.72-4.79,5.05-1.7,9.06,4.25,5.46,9.76,9.01,16.32,10.96,9.69,3,19.62,5.42,29.04,9.24,4.06,1.62,8.1,3.49,12.31,4.58,1.35.42,2.68.5,3.31-.93.73-1.47-.61-1.89-1.45-2.52-3.74-2.93-8.09-4.68-12.44-6.43-.71-.32-1.62-.2-1.79-1.56,1.54,0,3.18-.05,4.68-.15,1.29-.03,2.69-.09,2.91-1.96.33-1.9-1.15-2.04-2.46-2.36-8.41-1.84-16.9-3.28-25.45-3.64-4.34-.21-8.43-1.59-12.39-3.25-3.71-1.64-6.45-4.73-8.4-8.23-.34-.58-.87-1.32-.27-1.91.7-.63,1.27.22,1.78.61,4.7,3.27,9.76,5.93,15.09,7.77,1.78.61,4.36,2.1,5.31-.04,1.07-2.43-1.97-3.26-3.66-4.26-5.28-2.93-10.43-6.14-14.9-10.33-9.44-8.78-17.67-18.73-25.81-28.72-5.02-6.23-9.19-13.02-13-20.42,2.01-.31,3.35.71,4.83.85,1.76.27,4.13,1.48,4.95-.97.76-2.31-1.67-2.79-3.14-3.52-7.63-3.79-13.95-8.81-17.72-16.7-1.2-2.49-.76-3.49,1.97-4.08,7.65-1.66,15.09-3.83,22.36-6.77,10.22-4.19,18.83-10.37,23.83-20.71.63-1.43.86-3.89,2.26-3.95,1.85-.12,1.69,2.54,2.66,3.82.26.37.56.85.72,1.26,2.29,4.68,5.87,8.74,6.9,14.14,1.97,11.2,7.42,20.69,14.96,29.14,3.95,4.39,8.5,8.19,12.68,12.26,7.45,7.3,15.14,14.03,23.81,19.9,10.62,7.25,18.92,17.06,26.21,27.62,4.28,6.16,6.83,13.34,10.63,19.8,6.12,10.3,14.6,18.74,21.96,27.96,7.22,9.16,14.17,18.55,19.7,28.84,10.47,17.85,14.33,37.31,16.33,57.14,1.15,10.92,1.71,21.84,4.22,32.59,2.11,9.13,3.82,18.41,4.12,27.77.34,13.72.72,27.55,1.06,41.27.08,5.41,1.25,10.88-.16,16.4-2.32,8.95-4.4,17.94-6.4,26.94,3-2.25,6.3-4.06,9.96-5.28.43-1.49.89-2.97,1.46-4.42,2.62-6.7,3.67-13.14,3.48-20.06-.15-8.94-.58-18.01-.83-26.91-.2-9.39-1.35-18.78.12-28.11,1.01-5.96.79-12.03-.4-17.84-3.33-15.64-6.11-31.38-8.44-47.17-1.3-8.85-4.18-17.21-6.09-25.82-2.78-12.07-6.78-23.31-13.04-33.67ZM134.71,160.51c-.73.87-1.64.04-2.39-.37-6.36-3.58-13.03-6.44-19.64-9.44-1.18-.61-2.02-1.23-2.19-2.59-.94-5.79-3.99-10.3-7.61-14.46-1.52-1.78-1.39-2.66,1.12-2.92l16.27-1.09c1.26,4.48,3.31,8.55,6.08,12.33,1.23,1.65,1.66,3.98,2.46,6.03,1.29,3.64,3.31,7.01,5.32,10.37.38.68,1.15,1.45.59,2.14ZM150.16,110.84c-9.38,4.22-19.47,6.59-29.42,9.03-4.11,1-8.08,2.06-12.07,3.37-7.22,2.44-14.15,1.69-20.96-1.23-2.39-.97-4.71-2.08-7.14-3.15-1-.44-2-.88-3.06-1.18-2.09-.49-4.56-1.08-5.57,1.21-1.01,2.29,1.28,3.29,2.82,4.23,2.89,1.96,6.07,3.45,9.32,4.8.57.25,1.14.5,1.18,1.2s-.69.98-1.24,1.07c-6.03,1.86-11.7,4.65-17.53,7.03-7.68,3.09-15.11,1.35-22.59-.84-3.09-.94-6.05-2.16-9.18-2.6-.98-.09-2.02-.64-2.67.44-.61,1.18.37,1.87,1.1,2.53.81.87,1.83,1.66,2.76,2.24,14.18,8.48,28.49,10.28,43.19,1.15,3.43-2.16,3.61-1.99,4.67,1.98,1.99,7.28,2.38,14.71,3.02,22.16.12,1.85-.7,2.17-2.2,2.27-5.91.63-11.59,1.88-16.91,4.65-8.08,4.2-13.08,10.87-16.24,19.2-2.89,7.51-6.03,15-9.06,22.46-.32.71-.43,1.94-1.52,1.89-1.09-.05-1.22-1.31-1.5-2.03-5.44-12.22-10.78-24.48-16.23-36.7-1.02-2.33-2.08-4.76-3.2-7.05l-.21.08c-3.01-7.48-5.97-15.1-8.96-22.82-3.47-8.96-2.45-17.64,1.01-26.44,2.77-7.23,8.06-11.29,14.43-14.71,19.74-10.49,38.53-22.5,58.11-33.4,1.73-1.03,3.55-1.85,5.56-2.15,6.92-.79,13.78-2.02,20.84-2.15,2.44-.12,4.58.83,6.92,1.35,2.05.39.92,1.77.48,2.77-2.21,5-2.22,9.86.7,14.65.91,1.42,1.92,2.81,3.26,3.83,5.57,4,11.65,6.85,18.55,7.85,4.36.56,7.72-.86,9.85-4.53,3.49-5.97,6.88-11.9,10.22-17.93,1.29-2.16,2.98-2.69,5.31-2.18,1.17.26,1.79.96,2.13,2.14,3.95,16-4.84,29.7-17.98,35.5Z"/>
          <path class="cls-2" d="M107.87,58.19c1.15-2.22,2.02-4.57,1.62-7.14-.19-1.11-.77-2.3-1.9-2.46-1.23-.12-1.41,1.26-1.64,2.18-.47,1.84-1.09,3.62-2.23,5.25-.81,1.26-1.75,2.22-2.94,2.8,2.11.25,4.65.69,6.61.87-.02-.35.13-.88.49-1.49h0Z"/>
        </g>
      </g>
      <path class="cls-5" d="M338.72,467.44c-7.68,4.96-16.75,9.41-23.49,15.63-5.39,4.97-8.2,12.47-12.67,18.27-9.4,12.17-22.07,21.67-36.23,27.61-31.6,13.28-66.22,4.35-96.18-9.34-16.41-7.51-31.39-17.87-42.16-32.52-4.21-5.73-12.82,1.19-8.61,6.91,20.59,28.01,55.88,42.65,88.88,49.94,33.72,7.44,69.07-1.21,93.96-25.72,6.75-6.65,12.16-14,16.94-22.14,2.55-4.34,5.76-6.62,9.92-9.31,5.52-3.57,11.04-7.14,16.56-10.71,5.96-3.85-.98-12.44-6.91-8.61h0Z"/>
    </g>
    <path class="cls-6" d="M231.81,287.07c-.62-5.65-6.43-9.48-10.41-12.86-4.99-4.24-10.21-8.28-16.06-11.26-1.57-.8-3.3-.36-4.27,1.12-1.87,2.83-1.24,6.2.02,9.12,1.14,2.64,2.55,5.19,3.93,7.71,2.83,5.18,6.1,10.28,10.42,14.35,2.47,2.33,5.55,3.81,8.86,2.15,1.09-.54,2.15-1.36,3.06-2.33,2.86-1.25,4.83-4.57,4.45-8.01Z"/>
    <path class="cls-6" d="M192.81,317.65c-.94-.59-1.62-1.06-2.17-1.52-.81-.66-1.58-1.37-2.32-2.1-1.46-1.44-2.81-2.99-4.14-4.56-2.7-3.17-5.35-6.42-8.62-9.04-1.32-1.05-3.13-1.29-4.42,0-.38.38-.65.92-.8,1.49-.32.67-.42,1.45-.25,2.22,1.84,8.67,8.29,15.12,14.5,20.99.76.72,2,1.19,3.04.8,2.17-.8,4.05-1.89,5.81-3.38,1.59-1.35.95-3.92-.63-4.91Z"/>
    <path class="cls-6" d="M162.08,66.55c-7.61-.48-15.23-.96-22.84-1.44-3.59-.23-7.17-.54-10.74,0-1.5.22-3.59.49-4.71,1.61-1.27,1.27-1.74,3.89-2.21,5.56-.05.16-.1.34-.14.51-1.14,1.67-1.99,3.5-2.15,5.58-.29,3.74,2.01,6.8,4.71,9.11,2.78,2.37,5.86,4.39,9.2,5.89,3.22,1.44,7.31,3.33,10.84,2.01.51-.19.91-.47,1.26-.79,1.01-.25,1.99-.79,2.91-1.74,1.2-1.24,1.92-2.87,2.77-4.35.95-1.66,1.98-3.27,3.09-4.82,2.2-3.08,4.79-5.86,7.57-8.41.75-.69,1-1.61.88-2.48,3.57-.22,3.42-5.99-.43-6.23Z"/>
  </g>
</svg>