<?xml version="1.0" encoding="UTF-8"?>
<svg id="Layer_1" data-name="Layer 1" xmlns="http://www.w3.org/2000/svg" xmlns:xlink="http://www.w3.org/1999/xlink" viewBox="0 0 404.38 518.53">
  <defs>
    <style>
      .cls-1 {
        fill: none;
      }

      .cls-2 {
        fill: #c9fe01;
      }

      .cls-3 {
        fill: #5a1fc6;
      }

      .cls-4 {
        fill: #fd249e;
      }

      .cls-5 {
        fill: #fefefe;
      }

      .cls-6 {
        clip-path: url(#clippath);
      }
    </style>
    <clipPath id="clippath">
      <rect class="cls-1" x="-1556.11" y="-552.28" width="1920" height="440.43"/>
    </clipPath>
  </defs>
  <g class="cls-6">
    <g id="Cloudbg">
      <path id="cloudwhite" class="cls-5" d="M-2040.79,76.35l-8.98-605.19c2.37-6.94,13-13.61,20.41-15.52,28.07-7.35,55.32,34.72,51.85,58.02-3.97,10.73-3.24,12.57,8.11,7.96,7.84-1.22,21.56,8.39,23.26,15.35-2.03,10.23-1.99,19.62,2.56,29.27,1.9,4.13,7.69,10.66,12.26,5.6,6.69-7.36-2.87-26.68-6.91-34.62-1.37-10.11,20.6-31.69,29.49-37.28,24.48-15.27,57.64-22.91,81.76-2.89,6.28,5.18,12.47,13.08,13.23,21.13.41,4.65-.43,13.22-4.91,15.45-1.03,3.93.28,5.33,4.28,3.99.46-3.72,4.65-7.32,8.97-7.97,2.17-7.62,15.42-1.2,20.53,1.68,22.98,13.42,31.28,36.42,23.16,60.26-3.24,9.28-5.19,13.63-16.65,14.73-3.14,2.5-6.35,3.98-9.98,4.43,5.17,4.58,12.49,2.1,18.44-.08,4.53-.31,13.6,6.32,16.89,9.26,3.74,3.29,13.57,14.13,12.63,18.62-7.32,9.38-12.29,19.63-15.02,30.74-4.07,13.78,12.68,31.18,27.21,26,22.77-8.09,6.83-39.6-.76-53.31-.05-5.54,13.32-9.64,18.3-9.81,15.06-.53,22.84,7.42,30.64,17.74,2.84,3.26,8.24,4,6.38-1.38-7.31-11.66,7.5-15.03,14.71-6.99l8.11,7.96c3.48.79,6.49,2.13,8.69,4.13,1.86-8.65,12.72-8.52,15.5-.18,1.08-1.89,3.45-1.7,6.88.68-1.49-6.38-3.44-12.56-6.07-18.64-6.75-22.17,21.96-52.8,45.73-49.76,12.17,1.53,47.08,16.8,44.36,30.85-7.98,15.92,1.98,12.28,11.52,3.99,11.51-6.19,26.2-5.71,36.11,2.76,10.02,15.26,19.11,7.18,4.11-4.62-18.73-36.36,26.1-93.28,68.53-86.58,6.3,1,22.61,7.41,20.78,15.04-.66,3.03-6.16,8.51-9.04,6.72l-.41,2.14c-4.9,1.2-3.23,5.55,1.16,2.64l1.9.85c1.03-3.93,8.06-4.49,11.28-2.46,10.18-13.81,33.04-10.69,47.57-5.24,20.68,7.57,17.24,22.85,8.03,38.38-4.4,3.02-4.26,9.36,2.26,6.97,11.42-6.87,47.4-20.97,53.72-3.01,3.11,8.7-6.75,19.92-12.39,26.18-1.89,5.93,5.64.52,8.07-1.32,2.76-1.38,3.73.12,4.67,2.53,8.93.06,27.09,5.4,25.61,15.99-4.19,10.72-3.75,14.36,1.46,10.79,34.99-25.68,92.16-6.06,97.9,36.66,1.54,11.93-1.44,16.36-10.6,23.53-.47.44.41,1.37,1.29,2.19,11.21,6.7,14.8,14.62,1.55,21.88l.05,5.43c6.29,1.45,8.97,12.96,5.21,17.36-7.85,4.72,3.9,12.34,6.31,4.16,3.7-2.37,19.41,1.42,18.54,7.28-2.04,14.07-2.87,29.09,15.8,32.42,4.05.7,8.27-.52,9.98-4.2,4.64-10.6-5.76-21.23-12.99-28.48-2.55-4.95,6.4-8.84,10.86-10.51,14.3-4.85,41.99-4.07,44.68,13.89,12.96-1.96,24.93,23.1,22.8,32.76-4.49,9.36-7.33,16.84,6.59,9.6,4.22-1.11,8.38-.18,12.71,2.34,2.14.18,3.29-.35,3.24-2.27-4.27-14.96,8.86-29.01,25.35-24.86,5.79,6.41,7.89,4.44,6.2-6.25,13.34-20.72,38.44-6.33,38.21,14.81-1.87,5.48.07,8.15,6.52,8.24,8.49-17.6,36.21,10.22,33.75,19.65-7.04,7.8.84,19.49,5.6,5.27,6.32-6.58,37.41-9.53,43.07.72l6.99,11.09c1.61-4.25,1.2-9.24-.88-14.62-1.37-10,26.22-16.68,28.67-8.57-2.01,9.55-.72,32.67,11.52,35.33,19.31,4.36,25.08-30.3,7.2-37.1-8.82-3.57-4.16-7.71,1.19-12.41,8.73-7.64,20.02-13.83,31.54-16.96l.98-2.34c23.97-10.2,80.5-2.37,92.9,19.98,4.16,11.22,5.36,23.14,3.7,35.87-.06,1.92.36,6.35,2.97,5.98,14.58-6.54,38.93-3.94,43.92,12.96.23,13.92,5.68,13.19,11.71,1.74,3.76-4.18,11.48-12.3,15.66-5.04,7.7,3.3,7.28-1.35,5.09-6.85,7.02-31.67,69.07-40.52,84.63-11.17,2.39,10.03,5.02,12.61,7.55,7.71,3.74-.11,5.16-2.1,3.82-6.32-4.07-24.34-5.37-43.62,23.03-54.35,17.98-6.77,34.12-2.29,49.17,8.16,3.09,2.25,14.91,11.12,14.71,13.71-.03.9-.5,1.57-1.2,2-32.2,16.15,2.6,38.32,14.32,12l2.51-.71c-.67-10.77,14.27-.67,18.58,2.64,5.56,9.8,9.74,6.65,7.12-3.39-.14-13.13,22.76-11.14,31.09-6.46l2.7-3.08c-5.59-12.63,6.02-25.26,16.22-32.62,33.94-24.58,67.1-11.17,78.57,25.85,2,4.7,4.87,3.21,8.52-4.48,7.53-8.92,40.21-12.16,48.59-5.44,1.68,4.01,3.59,4.3,5.52.63,5.34-.84,6.62-1.93,3.85-3.72-32.66-21.99-15.29-83.19,26.65-82.4,15.94.29,25.55,3.88,29.47,19.17,8.57.73,10-1.37,4.28-6.31-3.14-7.91,2.51-32.05,8.59-38.19,11.12-11.4,42.28-2.7,46.99,12.39,1.57,3.9,9.32,2,8.43-1.88-10.58-29.42,12.35-56.39,38.7-70.24,27.62-14.6,49.52-2.58,65.98,19.79,2.31,5.39,8.33,15.32,7.25,3.29,8.9-16.23,33.63-25.61,52.37-20.7,5.09-.06,2.77-8.73-2.09-8.78-16.36-1.32-31.21-17.76-21.35-32.37,5.23-7.75,20.26-21.18,26.01-6.62l2.36.42c.96-12.19,2.24-16.78,17.37-15.84-6.64-8.13-1.47-13.96,6.82-18.44,12.1-6.73,18.63-2.56,28.23,5.1.7-.66,1.51-1.2,2.54-1.5-.38-2.16-.04-2.38,1.72-.74,3.7.91,7.29,1.93,11.11,2.85,1.05,2.41,2.23,4.48,3.65,6,4.3-7.1,16.05-16.9,23.66-7.6,10.89,6.01,19.28-1.41,6.71-8.04-7.91-.37-9.35-1.1-11.72-8.19-9.24-28.92,25.63-82.32,59.5-55.77,3.17,10.51,6.15,12.53,8.97,5.95-4.08-6.58.56-10.28,7.51-11.97,8.78-2.09,13.18,1.56,18.66,7.17,2.95,3.15,6.47-.81,6.26-4.55,7.51-22.16,26.12-27.55,30.11-.49,1.78,4.47,2.35,4.38,3.86-.33,5.72-5.58,19.18,8.43,19.1,14.42,3.58,182.48,6.57,369.24,9.24,555.54l-2411.46,36.02h.11c0-.11,0-.22,0-.22l-.66-.59Z"/>
    </g>
  </g>
  <g id="d7NO8q.tif">
    <g>
      <path class="cls-3" d="M182.78,0c7.37.58,11.13,7.08,13.86,13.31,5.03,11.48,8.07,24.24,10.92,36.45,5.44,23.34,8.8,45.97,8.92,69.79-.17,11.33,5.25,18.33,12.36,26.3l3.43,5.95c9.38-6.83,20.95-12.67,31.97-16.37-1.13-8.85-1.79-17.63-1.98-26.36-8.67-24-12.39-58.06,8.67-76.45-1.28-6.8,12.73-12.56,17-8.57,10.24-.65,12.6,6.39,14.3,15.04.34,10.84,2.27,21.19,5.78,31.06,2.63,14.91,6.09,29.61,10.36,44.1,5.35-4.8,6.83-6.53,8.54-13.67,1.74-16.31,7.43-29.88,16.06-43.7,7-20.79,22.52-55.37,49.3-51.64,3.24.45,4.65,1.69,6.69,4,4.61,1.1,5.3,2.42,5.42,7.2v2.99c-2.04,9.89-7.79,19.43-10.1,29.09-3.22,13.48-2.99,31.06-5.03,44.98-1.13,7.68-4.4,13.75-6.7,20.91-1.62,5.04-2.01,10.34-4.15,15.26-7.27,16.7-26.36,19.26-36.08,37.8-4.89,9.33-2.19,8.37-1.46,17.4,1.77,21.69-11.52,32.76-20.92,49.04-5.92,10.25-17.48,31.9-19.81,42.88-1.43,6.72-.9,13.46-1.77,19.88-1.34,10.01-13.56,13.56-19.82,19.36-25.26,23.4-41.29,53.25-48.39,87.06-4.61,21.95-1.66,26.06,5.96,45.55,9.5,24.3-13.48,37.98-31.94,47.89-28.62,15.36-64.04,25.36-96.62,21.01-15.61-10.36-33.94-22.7-43.72-39.12-9.53-16-14.24-39.26-13.89-57.82.53-28.61-3.26-40.35-9.45-67.37-6.05-26.38,10.61-38.36,19.07-60.35.82-2.14,1.97-4.13,1.61-6.57-4.08-6.75-13.03-12.08-17.5-18.37-5.61-7.9-9.03-20.33-14.27-27.52-10.25-14.08-26.6-20.13-29.23-40.91-.63-5.01,1.21-7.21,1.21-10.26,0-1.68-1.5-3.25-1.38-5.18.24-3.91,6.61-11.08,9.75-13.42,3.95-2.96,7.92-4.18,12.95-3.37,2.39.38,3.95,2.4,5.39,2.7,3.07.63,5.78-.1,9.94,1.37,14.97,5.28,22.05,20.19,32.43,30.25,5.55,5.38,13.35,9.26,19,13.83,3.26,2.64,6.51,6.83,9.75,9.65.67.58,4.84,4.02,5.24,3.73,7.33-16.91,23.91-21.53,27.48-40.44,1.07-5.65,2.35-15.63,2.11-21.2-.3-7.1-4.3-14.71-4.96-21.99-.92-10.14,2.44-19.8,2.28-29.11-.07-4.35-2.66-9.93-3.57-14.39-2.33-11.53-2.85-22.94,3.64-33.24,1.31-2.07,4.69-5.05,5.44-6.52.47-.92.27-5.13.62-6.83,3.88-19.06,10.3-36.59,23.26-51.37l13.08-3.71h8.95Z"/>
      <path class="cls-2" d="M297.69,74.64c-.52-1.4-.21-3.05.93-4.95.02-2.42.7-4,2.06-4.75,4.78,22.28,9.93,44.89,17.57,66.4,9.64,27.13,26.32,51.43,10.91,80.4-3.41,6.41-8.52,11.45-12.19,17.66-7.01,11.87-20.51,37.81-23.4,50.49-1.44,6.32-1.21,13.24-3.93,19.21-20.33,19.04-38.94,37.54-52.99,61.94-15.77,27.4-20.88,48.06-10.96,79.34,4,12.62,13.86,16.36,4.28,30.42-16.27,23.88-79.4,42.13-107.26,42.72-8.78.19-14.03-.42-20.86-5.98-18.04-14.69-32.21-24.77-40.14-47.92-6.51-18.99-5.73-33.1-5.03-52.46,1.14-31.54-14.08-57.73-2.99-89.57,3.37-9.67,9.43-17.99,11.96-27.98,1.51-1.09,6.33,6.02,7.43,7.11,3.01,2.96,6.62,5.32,9.35,8.56,7.53,8.93,16.78,35.34,19.99,47.18,3.43,12.65,4.2,20.7,1.07,33.61-.71,2.92-2.71,5.97-3.21,8.76-.63,3.51,2.19,2.25,3.72-.04,3.74-5.62,7.06-22.52,7.19-29.4.26-13.87-11.1-32.34-16.28-45.73-5.26-13.6-3.74-17.12-15.45-27.84-8.12-7.43-17.33-13.67-24.65-22.36-7.37-8.75-11.48-19.43-17.96-28.31-11.18-15.31-31.94-25.69-32.38-47.09,4.78,5.56,11.2,12.94,18.12,15.84,1.49.62,2.54.3,3.51.58.33-.61.87-1.19,1.49-1.05,6.35,1.45,9.27-.4,14.23-4.82,4.49-4,6.94-6.96,2.42-12.41-1.55-2.03-2.87-4.15-3.96-6.36,1.03-4.84-3.98-6.58-5.22-10.45,10.8,3.09,17.08,13.31,24.23,20.91,9.81,10.42,17.36,15.04,27.6,23.89,3.71,3.21,6.78,7.21,10.49,10.41,14.12,12.19,36.59,19.9,46.93,35.16,4.83,7.13,8.72,15.73,13.56,23.01,8.62,12.98,23.01,26.88,27.95,41.46.76,2.23.8,4.65,1.43,6.79.32,1.09-.41,1.3,1.5,1.08.57-1.86,1.53-2.49,1.47-4.72-.4-14.61-17.15-30.36-25.2-42.06-1.6-2.33-8.72-12.98-9.09-14.79-.11-.52-.13-1.28.38-1.12,8.64,7.99,17.64,10.34,29.36,8.84l.87-2.87-16.41-4.49,10.07-4.47c2.02-2.03,4.09-2.83,2.6-5.97-4.44,3.79-15.16,7.99-20.69,6.14-2.61-.87-7.94-5.66-10.29-7.64-4.36-3.67-7.46-8.08-11.94-11.91-9.12-7.8-20.89-14.19-31-20.65,4-14.68,22.42-22.64,26.7-36.69,2.16-7.08,1.4-14.54,2.63-21.26.37-2.02,2.01-3.45,2.13-5.39.59-9.97-9.57-26.33-6.02-38.07l1.48-8.59c3.79,12.71,15.6,20.61,22.7,30.66,7.99,11.32,24.48,40.18,28.43,52.92,5.74,18.55-.75,39.15,7.09,57.48.98,0,1.87-3.14,1.93-3.72.69-5.94-2.22-13.72-2.68-19.8-.84-10.99.93-19.85-1.72-31.12-3.78-16.09-20.19-44.22-29.76-58.31-5.38-7.92-12.52-14.53-17.63-22.67-9.96-15.84-18.95-40.16-9.09-57.7l2.32,7c3.68,6.22,6.74,14.17,11.1,19.87,3.07.66,5.06,2.16,5.97,4.48l.68-.78c4.66,2.05,7.6,1.81,8.83-.74l1.67-.72c-.18-.63-.12-1.26.35-1.72,4.75-4.67,5.01-5.69,2.42-12.42l1.71-.78c.86.23,1.71.15,2.26,1.08,10.53,20.54,29.23,35.78,43.64,53.4,15.67,19.16,23.31,48.65,29.85,72.4,2.13,7.74,10.14,47.69,14.73,50.57.72.45,1.99.16,2.77.56,3.34,1.68,5.49,3.4,9.72,2.62,1.01-3.95-3.49-3.83-6.34-5.97-3.95-2.97-9.09-11.33-9.17-16.18-.03-1.74,3.71-4.09-.71-4.11l-6.21-26.31c4.23-1.32,6.67-5.55,8.86-9.15,5.97-9.83,11.47-19.69,11.61-31.08.16-12.29.7-25.02.48-37.42-.14-7.77-3.14-17.08-3.77-24.7-.15-1.86.86-3.61.64-5.03-.24-1.61-3.9-6.19-4.71-8.74-3.23-10.11-2.69-39.33,1.72-49.02,1.44-3.16,4.75-7.15,7.59-9.19.87,5.49.77,11.08,1.72,16.57.96,5.55,3.63,10.19,3.87,15.5,4.31,4.18,14.08,10.14,19.04,4.5Z"/>
      <path class="cls-2" d="M390.2,50.76c-3.28,14.96-3.13,31.49-6.18,45.7-1.55,7.24-6.24,20.22-8.71,27.86-5.16,16-17.62,16.85-27.67,27.56-4.56,4.86-7.18,10.83-11.16,16.07l-17.92-47.76c1.4.01,2.85-.64,3.92-1.49,6.73-5.37,8.76-9.7,10.66-17.9,2.51-10.84,3.84-19.88,8.42-30.39,7.51-17.23,16.11-37.76,29.21-51.39,5.67-5.9,11.19-7.67,19.41-7.81-.51,1.38-1.81.96-2.83,2.76-1.37,2.44-3.77,10.86-4.64,14.01-1.03,3.71-4.32,16.1-3.34,18.99,1.5,4.45,3.91,2.89,6.34,3.04.59-2.23,3.79-1.11,4.48.75Z"/>
      <path class="cls-2" d="M250.67,209.74l-3.35-8.95c-3.25-15.26-7.92-29.92-14.55-44.03,1,0,2.04,0,3-.36,10.33-3.93,21.76-10.42,30.57-16.81.66,2.89-.81,5.92-.77,8.55.14,8,3.77,23.09,2.11,30.48-1.1,4.88-9.37,15.8-12.08,20.75-.85,1.55-.86,3.88-1.78,5.68-.87,1.71-2.88,2.61-3.15,4.69Z"/>
      <path class="cls-4" d="M26.1,210.49l1.36-2.88c-6.24-2.67-18.84-14.67-19.32-21.39-.62-8.71,7.31-12.12,13.74-15.22l15.77,14.14c.67.94,2.07.48,2.62.71.23.1.77-.19,1.31.16,1.05.68,6.57,9.23,6.77,10.87.67,5.59-12.51,15.57-18.07,15.06-1.53-.14-2.84-1.07-4.19-1.46Z"/>
      <path class="cls-4" d="M297.69,74.64l-17.1-7.57c1.11-4.99-1.45-10.21-2.2-15.3-1.03-7.01-1.28-14.17-2.34-21.17,3.58-.37,7.2-1.63,10.83-1.55,5.77.12,7.24,1.13,8.49,6.49,2.2,9.38,3.23,19.74,5.31,29.4.02,3.43-.67,7.07-2.98,9.7Z"/>
      <path class="cls-4" d="M157.42,60.46c-3.79,2.55.95,9.79,2.6,12.7.81,1.44,6.09,9.85,6.73,10.45,1.31,1.23,2.33.47,3.36.74-.97,1.98,1.29,3.41,1.47,5.69.29,3.73-2.36,8.22-5.94,9.24-.48.97-1.11,1.89-2.18,1.76-4.56-1.84-7.57-1.68-9.01.48-3.36-1.57-3.53-1.29-5.97-4.48.88-.21,3.47.8,2.95-1.08-2.88-10.38-15.29-20.55-10.98-32.33,4.23-2.36,11.06-1.51,14-5.4,1.16-2.63,5.03.23,2.98,2.24Z"/>
      <path class="cls-4" d="M385.73,50.01c.24-2.31-2.82-3.84-2.93-5.54s1.97-9.38,2.54-11.64c.87-3.47,3.64-14.03,5-16.64.27-.52.37-1.05,1.07-1.16l8.4.73c-.65,12.13-6.99,23-9.61,35-1.55.3-3.12-.67-4.48-.75Z"/>
      <path class="cls-2" d="M154.43,58.22c-.78-.41-1-1.39-2.62-1.47-2.64-.13-6.45,1.72-9.31,1.47-.91-.94,3.56-17.95,4.45-20.55,3.01-8.84,8.26-18.42,13.78-25.77.91-1.21,1.55-4.01,2.48-4.42,5.56-1.01,12.1-2.29,17.76-1.54,5.41.72,8.88,10.26,10.59,14.78,7.77,20.49,13.12,48.99,15.75,70.83,1.35,11.19.89,22.53,3.07,33.49l-10.91-10.35c-5.54-8.08-13.38-15.28-18.78-23.39-3.51-5.28-6.29-14.25-11.55-17.56-1.25-.79-3.45-1.02-4.07-1.53-.96-.79-4.45-8.61-7.66-11.75-.34-.33-.5-1.09-1.08-1.53-.72-.54-1.42-.46-1.9-.71Z"/>
      <path class="cls-3" d="M128.31,274.68c.65,4.37-.76,7.07-4.12,9.69l-1.83-1.17.72-3.29c-1.07-.11-.66,1.03-1.65,1.74-1.1.79-6.53,4.36-7.3,1.6-.65-2.26,6.95-6.45,8.18-6.77,1.16-.3,2.42.63,2.89.36.53-.29.49-3.05,3.1-2.16Z"/>
      <path class="cls-3" d="M189.5,487.41c2.25-1.38,4.89-1.34,2.98,1.49-4.65,4.25-12.56,8.17-18.65,9.7-2.2.61-4.54-1.21-2.24-2.99,6.86-2.47,11.55-4.63,17.91-8.21Z"/>
      <path class="cls-3" d="M165.62,99.27c-1.01,6.66-7.06,4.17-11.19,2.24-.3-7.07,5.5-.62,11.19-2.24Z"/>
      <path class="cls-2" d="M190.24,343.35c1.23,1.34-1.61,14.6-5.96,14.17-.4-3.51,1.53-6.51,2.65-9.67.83-2.32-.75-4.46,3.31-4.51Z"/>
      <path class="cls-3" d="M232.02,187.35c2,1.99-10.01,11.6-11.17,7.03-.68-2.68,10.46-7.74,11.17-7.03Z"/>
      <path class="cls-3" d="M64.15,224.67c.19,2.63-.18,6.47-3.72,5.96-.19-2.63.18-6.47,3.72-5.96Z"/>
      <g>
        <path class="cls-3" d="M153.69,445.61c20.29-24.09,44.24-49.24,66.43-72.04,1.13-1.16,4.78-5.16,5.54-5.62.9-.55,3.81-1.75,3.41.42-.28,1.48-6.31,8.34-7.84,10.08-18.76,21.49-42.9,48.1-63.8,67.17-2.15,1.71-3.4,1.71-3.73,0Z"/>
        <path class="cls-3" d="M157.42,445.61c-1.19,1.09-3.52,4.89-5.58,4.48-3.53-.71,1.56-4.14,1.85-4.48h3.73Z"/>
      </g>
      <path class="cls-3" d="M189.5,487.41c1.46-.82,3.23-3.63,5.97-2.98.15,2.28-1.65,3.26-2.98,4.47-.39-1.37-1.68-1.62-2.98-1.49Z"/>
      <path class="cls-3" d="M171.59,495.62c-.06,1.52,1.22,2.11,2.24,2.99-.26.07-.65.82-1.82.82-3.35,0-3.56-2.68-.41-3.81Z"/>
    </g>
  </g>
</svg>